<?xml version="1.0" standalone="no"?>
<!DOCTYPE svg PUBLIC "-//W3C//DTD SVG 20010904//EN"
 "http://www.w3.org/TR/2001/REC-SVG-20010904/DTD/svg10.dtd">
<svg version="1.0" xmlns="http://www.w3.org/2000/svg"
 width="700.000000pt" height="700.000000pt" viewBox="0 0 700.000000 700.000000"
 preserveAspectRatio="xMidYMid meet">
<metadata>
Created by potrace 1.14, written by Peter Selinger 2001-2017
</metadata>
<g transform="translate(0.000000,700.000000) scale(0.100000,-0.100000)"
fill="#000000" stroke="none">
<path d="M3215 6604 c-122 -13 -284 -38 -385 -60 -835 -179 -1558 -695 -2003
-1428 -733 -1210 -560 -2763 423 -3780 480 -497 1089 -810 1784 -918 167 -26
552 -36 723 -19 1123 113 2084 796 2544 1811 382 845 372 1804 -27 2639 -445
931 -1314 1572 -2346 1732 -104 17 -191 22 -403 24 -148 2 -288 1 -310 -1z
m570 -139 c1149 -121 2126 -898 2501 -1990 58 -166 108 -372 136 -550 30 -190
32 -635 5 -819 -40 -266 -95 -477 -184 -701 -354 -896 -1104 -1560 -2027
-1795 -274 -70 -398 -84 -736 -85 -317 0 -397 8 -640 61 -249 56 -439 123
-685 244 -442 217 -842 565 -1127 980 -636 927 -695 2145 -152 3132 354 644
941 1137 1638 1377 215 74 518 139 726 154 129 10 416 5 545 -8z"/>
<path d="M4054 4696 c-17 -7 -47 -28 -67 -45 -80 -71 -1783 -1964 -1800 -2002
-15 -32 -16 -46 -7 -78 20 -77 105 -129 169 -104 14 5 181 107 371 227 190
120 680 429 1090 687 410 257 764 484 787 504 85 72 114 207 64 303 -12 24
-96 137 -187 253 -191 241 -216 262 -324 266 -40 2 -77 -2 -96 -11z"/>
</g>
</svg>
