<?xml version="1.0" standalone="no"?>
<!DOCTYPE svg PUBLIC "-//W3C//DTD SVG 20010904//EN"
 "http://www.w3.org/TR/2001/REC-SVG-20010904/DTD/svg10.dtd">
<svg version="1.0" xmlns="http://www.w3.org/2000/svg"
 width="700.000000pt" height="700.000000pt" viewBox="0 0 700.000000 700.000000"
 preserveAspectRatio="xMidYMid meet">
<metadata>
Created by potrace 1.14, written by Peter Selinger 2001-2017
</metadata>
<g transform="translate(0.000000,700.000000) scale(0.100000,-0.100000)"
fill="#000000" stroke="none">
<path d="M3685 5367 c-102 -27 -195 -98 -229 -175 -9 -20 -281 -733 -606
-1584 -544 -1427 -590 -1553 -590 -1608 0 -33 6 -75 13 -93 54 -127 210 -183
335 -121 49 24 115 103 949 1133 494 608 973 1198 1065 1311 93 113 178 225
189 250 44 93 33 218 -29 333 -49 92 -127 150 -451 336 -167 96 -331 185 -364
199 -75 30 -205 39 -282 19z"/>
</g>
</svg>
