<svg viewBox="0 0 312 79" xmlns="http://www.w3.org/2000/svg"><path d="M2.36172 76.0467C1.59193 75.2585 0.986775 74.3247 0.581577 73.2999C0.176379 72.275 -0.0207406 71.1797 0.00172543 70.0778C0.00339285 66.9094 0.579254 63.7675 1.70135 60.8048L16.316 18.2639C17.4411 14.8704 19.0608 11.6618 21.1226 8.74174C22.8878 6.22343 25.1592 4.10182 27.7912 2.51281C30.1918 1.08579 32.9342 0.337012 35.7264 0.346223C36.8743 0.272247 38.0254 0.425532 39.114 0.797304C40.2025 1.16908 41.2071 1.75203 42.0703 2.51281C43.6096 4.18191 44.4404 6.38442 44.387 8.65508C44.37 11.9577 43.7613 15.2305 42.5899 18.318L38.8875 29.086H27.5639L31.8941 16.4115C32.1549 15.7588 32.2444 15.0502 32.154 14.3532C32.119 14.1196 31.9968 13.908 31.8119 13.7612C31.627 13.6144 31.3933 13.5433 31.158 13.5624C30.8599 13.5754 30.5682 13.6528 30.3028 13.7893C30.0375 13.9259 29.8048 14.1182 29.6207 14.3532C29.1046 14.9556 28.7144 15.6555 28.4732 16.4115L12.776 62.1481C12.509 62.7915 12.4157 63.4938 12.5054 64.1847C12.5429 64.4196 12.6697 64.6309 12.8594 64.7742C13.0491 64.9176 13.2869 64.982 13.523 64.9538C13.8208 64.9394 14.112 64.8613 14.3772 64.7249C14.6423 64.5885 14.8752 64.3969 15.0602 64.163C15.5545 63.5762 15.923 62.8941 16.1428 62.1589L21.1876 47.4803H32.522L27.9752 60.859C26.8929 64.1294 25.3196 67.216 23.3094 70.0128C21.5666 72.4537 19.3317 74.5018 16.749 76.025C14.3398 77.4411 11.597 78.1889 8.80299 78.1916C6.45926 78.3389 4.14993 77.5699 2.36172 76.0467Z" fill="#EF692B"></path><path d="M58.0615 0.328125H76.0495L55.9021 78.2095H43.7691L49.5128 58.1599L52.1843 49.249L62.3248 14.14H62.2469L48.6112 49.1933L44.9713 58.7948L37.3625 78.2115H25.5078L58.0615 0.328125ZM44.5594 47.4446H58.4289L53.776 61.0448H39.9066L44.5594 47.4446Z" fill="#EF692B"></path><path d="M86.793 0.320312H109.781C114.826 0.320312 118.731 0.977248 121.498 2.29112C122.78 2.83831 123.908 3.692 124.783 4.77724C125.658 5.86247 126.253 7.14606 126.517 8.51531C127.095 11.3657 126.583 15.1218 124.981 19.7834C123.711 23.8264 121.708 27.6009 119.073 30.9179C116.933 33.5709 114.179 35.6615 111.05 37.0085C107.702 38.335 104.155 39.0879 100.557 39.2354L102.493 38.3781C105.659 38.4997 108.79 39.0888 111.784 40.1262C112.616 40.3865 113.371 40.8478 113.982 41.4692C114.593 42.0906 115.042 42.853 115.289 43.6892C115.574 45.8553 115.274 48.0581 114.421 50.0693L104.73 78.2062H85.7137L95.3386 50.1584C95.7352 49.2286 95.8921 48.214 95.7948 47.2077C95.7089 46.8379 95.5251 46.4981 95.2628 46.2238C95.0005 45.9495 94.6692 45.7509 94.3038 45.6489C93.0128 45.2633 91.6662 45.0977 90.3203 45.159L78.9707 78.2062H60.0547L86.793 0.320312ZM100.924 30.2053C102.685 28.1571 103.983 25.7531 104.73 23.1572L105.587 20.6631C106.521 17.9462 106.748 16.0088 106.265 14.8508C105.776 13.7374 104.351 13.1139 102.004 13.1027H101.314L94.6932 32.3654H95.4498C96.4619 32.4025 97.4706 32.2298 98.4128 31.8581C99.3549 31.4863 100.21 30.9236 100.924 30.2053Z" fill="#EF692B"></path><path d="M137.321 0.320312H164.026C169.871 0.320312 174.433 0.980919 177.712 2.30213C179.16 2.77378 180.475 3.58455 181.547 4.66705C182.62 5.74955 183.418 7.07251 183.876 8.52593C184.7 11.3688 184.31 15.1209 182.708 19.7822C181.425 23.8855 179.303 27.677 176.477 30.916C174.018 33.6279 170.936 35.6992 167.497 36.9505C163.616 38.2959 159.553 39.0466 155.447 39.1773L157.672 38.3089C161.332 38.4374 164.962 39.0247 168.477 40.0569C170.813 40.8919 172.237 42.0832 172.727 43.6197C173.217 45.1562 173.005 47.2827 172.071 49.9882L162.39 78.2013H140.314L149.95 50.1553C150.352 49.2232 150.476 48.1945 150.306 47.1937C150.163 46.8027 149.923 46.455 149.607 46.184C149.291 45.913 148.911 45.7277 148.503 45.6461C146.982 45.2512 145.411 45.0824 143.841 45.145L132.484 78.2066H110.586L137.321 0.320312ZM155.347 30.2369C157.238 28.2476 158.62 25.8294 159.375 23.1892L160.231 20.6952C161.166 17.9785 161.322 16.0413 160.699 14.8833C160.076 13.7254 158.399 13.1428 155.669 13.1353H154.857L148.248 32.3968H149.127C151.402 32.5138 153.633 31.739 155.347 30.2369Z" fill="#EF692B"></path><path d="M179.863 75.996C176.59 74.55 174.506 72.4137 173.61 69.587C172.714 66.7602 172.967 63.3334 174.369 59.3066L188.153 19.1828C189.44 15.3691 191.63 11.9238 194.536 9.14096C197.66 6.213 201.379 3.9937 205.438 2.63439C210.114 1.03653 215.03 0.255201 219.971 0.324556C225.367 0.324556 229.702 1.08366 232.975 2.60185C234.433 3.18369 235.755 4.06256 236.855 5.18267C237.956 6.30278 238.812 7.63965 239.369 9.10842C240.373 11.9279 240.196 15.3114 238.838 19.2587L225.042 59.3825C223.763 63.2556 221.591 66.7733 218.703 69.652C215.685 72.5588 212.046 74.7395 208.061 76.0285C203.272 77.5636 198.263 78.2964 193.236 78.1973C187.601 78.1973 183.143 77.4635 179.863 75.996ZM200.453 64.2082C201.17 63.6839 201.704 62.9482 201.981 62.1044L217.662 16.45C217.813 16.1169 217.879 15.7521 217.857 15.3874C217.834 15.0227 217.723 14.669 217.532 14.3571C217.276 14.058 216.95 13.8265 216.584 13.6828C216.217 13.5391 215.821 13.4877 215.43 13.5329C214.465 13.4959 213.514 13.7737 212.721 14.3245C211.997 14.87 211.463 15.6284 211.193 16.4934L195.512 62.1478C195.356 62.4811 195.281 62.8466 195.295 63.2143C195.308 63.582 195.408 63.9412 195.587 64.2624C195.858 64.5602 196.196 64.7877 196.574 64.9256C196.951 65.0635 197.356 65.1076 197.755 65.0541C198.726 65.0753 199.677 64.7782 200.464 64.2082H200.453Z" fill="#EF692B"></path><path d="M261.902 14.4611H244.655L249.539 0.320312L311.973 0.431658L307.122 14.5391H289.875L268.033 78.2062H240.07L261.902 14.4611Z" fill="#EF692B"></path></svg>