<svg width="247" height="201" viewBox="0 0 247 201" fill="none" xmlns="http://www.w3.org/2000/svg">
<path d="M193.945 4.12939C194.372 7.43702 195.883 10.5097 198.243 12.8663C200.603 15.2229 203.678 16.7304 206.986 17.1527C203.68 17.5825 200.608 19.0951 198.252 21.4544C195.896 23.8138 194.388 26.8869 193.963 30.1939C193.535 26.888 192.025 23.8165 189.67 21.4578C187.314 19.099 184.245 17.5854 180.939 17.1527C184.243 16.7238 187.312 15.2137 189.668 12.858C192.024 10.5022 193.534 7.43319 193.963 4.12939H193.945Z" fill="black"/>
<path d="M7.25062 108.097C7.47736 109.821 8.26666 111.422 9.49607 112.651C10.7255 113.881 12.3263 114.67 14.0501 114.897C12.3368 115.12 10.744 115.899 9.51587 117.114C8.28771 118.329 7.49196 119.914 7.25062 121.624C7.02975 119.898 6.24234 118.294 5.01184 117.064C3.78133 115.833 2.17729 115.046 0.451172 114.825C2.17729 114.604 3.78133 113.817 5.01184 112.586C6.24234 111.356 7.02975 109.752 7.25062 108.025V108.097Z" fill="black"/>
<path d="M170.399 34.4401C170.626 36.1639 171.415 37.7647 172.645 38.9941C173.874 40.2235 175.475 41.0128 177.198 41.2396C175.485 41.4627 173.892 42.2415 172.664 43.4567C171.436 44.6719 170.64 46.2563 170.399 47.9671C170.178 46.2409 169.391 44.6369 168.16 43.4064C166.93 42.1759 165.326 41.3885 163.6 41.1676C165.326 40.9467 166.93 40.1593 168.16 38.9288C169.391 37.6983 170.178 36.0943 170.399 34.3682V34.4401Z" fill="black"/>
<path d="M24.1738 70.2246L24.1738 148.544M46.5328 52.6684L46.5328 168.727M68.9099 35.1301L68.9098 174.393M91.2869 17.5739L91.2869 177.253M113.61 0.0356484L113.61 179.915M135.987 0.125581L135.987 179.825M158.4 17.5739L158.4 177.253M180.759 35.1481L180.759 174.411M203.136 52.6684L203.136 168.259M225.495 70.2246L225.495 148.544" stroke="black" stroke-miterlimit="10"/>
<path d="M225.495 98.4759C225.495 115.812 180.428 129.865 124.834 129.865C69.2411 129.865 24.1738 115.812 24.1738 98.4759C24.1738 81.1403 69.2411 67.0869 124.834 67.0869C180.428 67.0869 225.495 81.1403 225.495 98.4759Z" stroke="black" stroke-miterlimit="10"/>
<path d="M225.495 148.846C225.495 166.182 180.428 180.235 124.834 180.235C69.2411 180.235 24.1738 166.182 24.1738 148.846C24.1738 131.51 69.2411 117.457 124.834 117.457C180.428 117.457 225.495 131.51 225.495 148.846Z" stroke="black" stroke-miterlimit="10"/>
<path d="M244.73 148.846C244.73 176.325 191.051 198.601 124.835 198.601C58.6184 198.601 4.93945 176.325 4.93945 148.846C4.93945 121.367 58.6184 99.0913 124.835 99.0913C191.051 99.0913 244.73 121.367 244.73 148.846Z" stroke="black" stroke-miterlimit="10"/>
<path d="M80.4528 64.8875C86.5059 70.9406 86.5059 80.7547 80.4528 86.8078C74.3997 92.8609 64.5856 92.8609 58.5325 86.8078C52.4793 80.7547 52.4794 70.9406 58.5325 64.8875C64.5856 58.8344 74.3997 58.8343 80.4528 64.8875Z" fill="white" stroke="black"/>
<path d="M198.458 191.991C198.458 193.109 198.238 194.215 197.811 195.247C197.383 196.28 196.756 197.218 195.966 198.008C195.176 198.798 194.238 199.425 193.205 199.853C192.173 200.28 191.066 200.5 189.949 200.5C188.831 200.5 187.725 200.28 186.693 199.853C185.66 199.425 184.722 198.798 183.932 198.008C183.142 197.218 182.515 196.28 182.087 195.247C181.66 194.215 181.44 193.109 181.439 191.991C181.444 189.738 182.343 187.578 183.938 185.986C185.533 184.395 187.695 183.5 189.949 183.5C192.203 183.5 194.364 184.395 195.96 185.986C197.555 187.578 198.453 189.738 198.458 191.991Z" fill="white" stroke="black"/>
<path d="M245.703 113.586C245.703 116.072 243.688 118.086 241.203 118.086C238.718 118.086 236.703 116.072 236.703 113.586C236.703 111.101 238.718 109.086 241.203 109.086C243.688 109.086 245.703 111.101 245.703 113.586Z" fill="white" stroke="black"/>
<path d="M108.637 99.0903C108.637 100.284 108.163 101.428 107.319 102.272C106.475 103.116 105.33 103.59 104.137 103.59C102.943 103.59 101.799 103.116 100.955 102.272C100.111 101.428 99.6367 100.284 99.6367 99.0903C99.6367 97.8969 100.111 96.7523 100.955 95.9083C101.799 95.0644 102.943 94.5903 104.137 94.5903C105.33 94.5903 106.475 95.0644 107.319 95.9083C108.163 96.7523 108.637 97.8969 108.637 99.0903Z" fill="white" stroke="black"/>
<path d="M62.8203 159.334C62.8203 160.528 62.3462 161.673 61.5023 162.516C60.6584 163.36 59.5138 163.834 58.3203 163.834C57.1268 163.834 55.9822 163.36 55.1383 162.516C54.2944 161.673 53.8203 160.528 53.8203 159.334C53.8203 158.141 54.2944 156.996 55.1383 156.152C55.9822 155.309 57.1268 154.834 58.3203 154.834C59.5138 154.834 60.6584 155.309 61.5023 156.152C62.3462 156.996 62.8203 158.141 62.8203 159.334Z" fill="white" stroke="black"/>
</svg>
