<svg width="291" height="166" viewBox="0 0 291 166" fill="none" xmlns="http://www.w3.org/2000/svg">
    <path
        d="M45.4076 1.00195C112.026 1.04785 178.64 1.04785 245.258 1.00195C253.368 25.8014 258.023 51.404 267.464 75.7949C275.446 96.4175 282.941 117.049 289.67 138.126C193.447 137.952 97.2188 137.952 1 138.126C7.72884 117.045 15.2196 96.4221 23.2061 75.7949C32.6384 51.4086 37.2972 25.7922 45.4076 1.00195Z"
        stroke="currentColor" stroke-miterlimit="10" />
    <path
        d="M5.76508 123.159C52.6145 122.374 98.4129 134.666 145.331 134.666C192.25 134.666 238.043 122.374 284.897 123.159"
        stroke="currentColor" stroke-miterlimit="10" />
    <path
        d="M10.2296 109.848C56.9689 114.608 97.8331 144.342 145.33 144.342C192.822 144.342 233.691 114.608 280.43 109.848"
        stroke="currentColor" stroke-miterlimit="10" />
    <path
        d="M14.4207 98.531C40.184 105.466 62.0688 120.485 84.7752 133.915C102.621 144.467 123.813 157.089 145.33 156.952C165.994 156.819 186.047 145.55 203.329 135.429C226.944 121.609 249.503 105.728 276.24 98.531"
        stroke="currentColor" stroke-miterlimit="10" />
    <path
        d="M18.3579 88.5618C43.6393 99.3527 63.9314 117.951 85.3388 134.718C101.863 147.657 123.123 165.003 145.329 165.003C166.558 165.003 186.887 148.947 202.8 136.669C225.162 119.411 246.028 99.7796 272.301 88.5618"
        stroke="currentColor" stroke-miterlimit="10" />
    <path
        d="M22.0685 78.8176C46.9827 92.1055 66.2696 112.944 87.0941 131.588C102.732 145.587 122.905 164.062 145.331 164.062C166.757 164.062 186.035 147.033 201.126 133.745C222.919 114.559 242.707 92.6241 268.598 78.8176"
        stroke="currentColor" stroke-miterlimit="10" />
    <path
        d="M25.5631 69.9119C49.6465 83.7872 68.9105 103.813 89.937 121.691C104.919 134.433 124.417 151.03 145.328 151.204C166.056 151.379 185.963 134.24 200.72 121.691C221.746 103.813 241.005 83.7872 265.093 69.9119"
        stroke="currentColor" stroke-miterlimit="10" />
    <path
        d="M28.8634 60.5347C51.4642 72.7164 70.7144 89.5431 91.4563 104.479C106.594 115.375 125.775 128.925 145.328 129.09C163.693 129.251 182.484 116.353 196.731 106.26C218.414 90.9017 238.293 73.1983 261.793 60.5347"
        stroke="currentColor" stroke-miterlimit="10" />
    <path
        d="M31.9927 50.1191C53.3451 59.7075 72.5769 72.8898 92.9103 84.3463C108.658 93.2232 126.779 102.518 145.327 102.623C163.761 102.729 182.148 93.136 197.744 84.3463C218.082 72.8852 237.31 59.7121 258.662 50.1191"
        stroke="currentColor" stroke-miterlimit="10" />
    <path
        d="M34.9547 39.135C71.0637 51.2433 106.135 75.368 145.329 75.368C184.518 75.368 219.603 51.2387 255.703 39.135"
        stroke="currentColor" stroke-miterlimit="10" />
    <path
        d="M37.7691 28.1619C73.7588 36.0841 108.023 50.065 145.334 50.065C182.641 50.065 216.91 36.0795 252.899 28.1619"
        stroke="currentColor" stroke-miterlimit="10" />
    <path d="M40.4414 17.7786C75.6967 21.96 109.74 28.317 145.331 28.317C180.925 28.317 214.964 21.96 250.22 17.7786"
        stroke="currentColor" stroke-miterlimit="10" />
    <path
        d="M42.9841 8.55811C77.1883 10.0223 111.099 11.8124 145.33 11.8124C179.567 11.8124 213.473 10.0223 247.677 8.55811"
        stroke="currentColor" stroke-miterlimit="10" />
    <path
        d="M229.882 1.01465C237.157 29.6972 239.002 59.8851 248.668 87.9434C254.571 105.068 262.888 120.348 267.455 138.098"
        stroke="currentColor" stroke-miterlimit="10" />
    <path
        d="M214.51 1.02905C220.872 34.7467 220.078 70.9797 229.882 103.949C231.47 109.292 233.545 112.436 236.716 116.691C241.605 123.254 243.431 130.02 245.254 138.103"
        stroke="currentColor" stroke-miterlimit="10" />
    <path
        d="M199.137 1.04517C202.189 23.8342 203.681 46.8206 205.563 69.7289C206.949 86.5878 206.839 105.182 211.094 121.705C212.521 127.241 212.714 126.286 216.18 127.727C216.694 127.938 217.983 126.451 218.943 126.878C222.087 128.274 222.55 135.686 223.051 138.124"
        stroke="currentColor" stroke-miterlimit="10" />
    <path
        d="M183.762 1.05591C186.608 32.7035 187.577 64.5117 189.298 96.2374C189.963 108.497 190.546 120.794 191.712 133.021C191.955 135.587 191.744 141.329 194.09 143.234C196.426 139.755 196.297 135.192 198.606 131.681C200.332 133.131 200.768 135.468 200.846 138.148"
        stroke="currentColor" stroke-miterlimit="10" />
    <path
        d="M168.391 1.05591C170.085 33.4333 170.613 65.8704 171.526 98.2753C172.049 116.754 169.837 138.24 174.229 156.315C176.878 149.242 175.336 140.897 177.732 133.655C178.571 134.981 178.879 136.482 178.645 138.157"
        stroke="currentColor" stroke-miterlimit="10" />
    <path
        d="M153.02 1.04517C153.621 35.0749 153.768 69.1093 154.066 103.144C154.245 123.523 153.424 144.242 154.966 164.575C156.077 154.533 155.383 144.306 156.132 134.222C156.765 135.393 156.866 136.701 156.435 138.151"
        stroke="currentColor" stroke-miterlimit="10" />
    <path
        d="M137.644 1.04517C137.042 35.0749 136.896 69.1093 136.597 103.144C136.418 123.523 137.24 144.242 135.698 164.575C134.601 154.528 135.28 144.306 134.532 134.222C133.898 135.393 133.797 136.701 134.229 138.151"
        stroke="currentColor" stroke-miterlimit="10" />
    <path
        d="M122.272 1.05591C120.579 33.4333 120.051 65.8704 119.138 98.2753C118.614 116.754 120.827 138.24 116.434 156.315C113.584 149.347 115.342 140.865 112.932 133.655C112.092 134.981 111.784 136.482 112.019 138.157"
        stroke="currentColor" stroke-miterlimit="10" />
    <path
        d="M106.9 1.05591C104.054 32.7035 103.085 64.5117 101.364 96.2374C100.699 108.497 100.116 120.794 98.9499 133.021C98.7067 135.587 98.9178 141.329 96.5723 143.234C94.2361 139.755 94.3646 135.192 92.0558 131.681C90.33 133.131 89.894 135.468 89.8159 138.148"
        stroke="currentColor" stroke-miterlimit="10" />
    <path
        d="M91.5281 1.04517C88.2326 25.6472 86.7408 50.465 84.657 75.191C83.3672 90.4525 83.3351 106.779 79.5714 121.705C79.2638 122.926 78.7039 127.158 77.0744 127.966C75.9545 128.521 74.5224 127.218 74.0405 127.461C73.6641 127.649 72.1586 126.832 71.2406 127.268C68.6244 128.508 68.0139 136.205 67.6192 138.124"
        stroke="currentColor" stroke-miterlimit="10" />
    <path
        d="M76.1506 1.02905C69.7843 34.7697 70.5876 70.9613 60.7789 103.949C59.2183 109.205 57.0794 112.482 53.9444 116.691C49.0562 123.254 47.2294 130.02 45.4026 138.103"
        stroke="currentColor" stroke-miterlimit="10" />
    <path
        d="M60.7792 1.01465C53.5041 29.7017 51.659 59.8806 41.988 87.9434C36.0853 105.078 27.7684 120.335 23.1968 138.098"
        stroke="currentColor" stroke-miterlimit="10" />
</svg>