<svg width="231" height="202" viewBox="0 0 231 202" fill="none" xmlns="http://www.w3.org/2000/svg">
<path d="M129.538 200.827C77.1845 200.661 29.6426 153.543 29.6426 100.932C29.6426 48.32 77.1845 1.20268 129.538 1.03618C185.534 0.857204 229.434 45.3024 229.434 100.932C229.434 156.561 185.534 201.006 129.538 200.827Z" stroke="currentColor" stroke-width="1.2" stroke-miterlimit="10"/>
<path d="M216.588 100.932C216.588 55.4209 179.881 17.9725 133.342 17.6853C89.5836 17.4148 50.0957 60.5488 50.0957 100.932C50.0957 141.314 89.5836 184.448 133.342 184.178C179.881 183.891 216.588 146.442 216.588 100.932Z" stroke="currentColor" stroke-width="1.2" stroke-miterlimit="10"/>
<path d="M142.687 167.528C107.299 167.528 76.0898 134.442 76.0898 100.931C76.0898 67.4207 107.299 34.3345 142.687 34.3345C179.852 34.3345 209.284 64.4821 209.284 100.931C209.284 137.381 179.852 167.528 142.687 167.528Z" stroke="currentColor" stroke-width="1.2" stroke-miterlimit="10"/>
<path d="M204.747 100.934C204.747 73.8411 182.037 50.8152 154.799 50.9858C128.231 51.1523 104.852 74.2698 104.852 100.934C104.852 127.597 128.231 150.715 154.799 150.881C182.033 151.052 204.747 128.026 204.747 100.934Z" stroke="currentColor" stroke-width="1.2" stroke-miterlimit="10"/>
<path d="M166.892 134.23C148.616 134.239 133.594 118.863 133.594 100.932C133.594 83.0006 148.616 67.625 166.892 67.6333C184.898 67.6416 200.191 83.9704 200.191 100.932C200.191 117.893 184.898 134.222 166.892 134.23Z" stroke="currentColor" stroke-width="1.2" stroke-miterlimit="10"/>
<path d="M192.834 100.933C192.834 92.6458 185.142 84.3087 176.184 84.2838C167.04 84.2588 159.535 91.9757 159.535 100.933C159.535 109.89 167.04 117.607 176.184 117.582C185.142 117.557 192.834 109.22 192.834 100.933Z" stroke="currentColor" stroke-width="1.2" stroke-miterlimit="10"/>
<path d="M179.903 101.141C176.873 140.342 132.34 161.782 129.539 201.037" stroke="currentColor" stroke-width="1.2" stroke-miterlimit="10"/>
<path d="M179.902 100.934C189.659 104.676 195.79 108.443 202.354 116.368C208.747 124.089 215.752 127.86 225.018 131.802" stroke="currentColor" stroke-width="1.2" stroke-miterlimit="10"/>
<path d="M179.902 100.933C187.852 87.5846 185.971 75.1976 184.348 60.5254C182.758 46.1779 184.031 33.4662 189.871 20.1177" stroke="currentColor" stroke-width="1.2" stroke-miterlimit="10"/>
<path d="M179.902 100.933C166.741 83.2683 143.869 72.1424 125.63 60.5254C106.762 48.5088 88.2981 36.0052 72.4355 20.1177" stroke="currentColor" stroke-width="1.2" stroke-miterlimit="10"/>
<path d="M179.902 100.934C132.931 115.977 82.4876 118.391 35.0039 131.802" stroke="currentColor" stroke-width="1.2" stroke-miterlimit="10"/>
<circle cx="24.6426" cy="133.954" r="23.5" fill="none" stroke="currentColor"/>
<path d="M31.0066 140.317L18.2787 127.589" stroke="currentColor" stroke-linecap="round"/>
<path d="M31.0064 127.589L18.2785 140.317" stroke="currentColor" stroke-linecap="round"/>
<path fill-rule="evenodd" clip-rule="evenodd" d="M9.64258 100.784C13.7847 100.784 17.1426 97.4258 17.1426 93.2837C17.1426 89.1416 13.7847 85.7837 9.64258 85.7837C5.50044 85.7837 2.14258 89.1416 2.14258 93.2837C2.14258 97.4258 5.50044 100.784 9.64258 100.784Z" stroke="currentColor"/>
</svg>
