<svg width="112" height="23" viewBox="0 0 112 23" fill="none" xmlns="http://www.w3.org/2000/svg">
<path d="M4.8125 11.1375C7.21719 11.1375 9.02422 10.0969 9.02422 7.05234H5.80391V7.49531C5.80391 8.27578 5.6 8.84531 4.86172 8.84531C4.08828 8.84531 3.85625 8.26172 3.85625 7.55859V4.21172C3.85625 3.45938 4.11641 2.91797 4.84766 2.91797C5.57891 2.91797 5.80391 3.45234 5.80391 4.21875V4.47188H9.02422C9.02422 1.80703 7.26641 0.632812 4.87578 0.632812C2.33047 0.632812 0.59375 1.98984 0.59375 4.63359V7.2C0.59375 9.79453 2.19688 11.1375 4.8125 11.1375Z" fill="black"/>
<path d="M9.95206 10.9266H16.3505V8.54297H13.0458V0.84375H9.95206V10.9266Z" fill="black"/>
<path d="M16.8565 10.9266H20.0346L20.351 9.02109H22.3408L22.6713 10.9266H25.8987L23.5713 0.84375H19.1346L16.8565 10.9266ZM20.7377 6.79219L21.3494 3.14297L21.9682 6.79219H20.7377Z" fill="black"/>
<path d="M26.6156 10.9266H29.7093V0.84375H26.6156V10.9266Z" fill="black"/>
<path d="M30.9817 10.9266H33.7801V4.70391L35.0176 10.9266H37.5208L38.7442 4.59844V10.9266H41.5426V0.84375H37.4715L36.3114 7.04531L35.1512 0.84375H30.9817V10.9266Z" fill="black"/>
<path d="M0.7625 22.3266H4.86875C7.12578 22.3266 8.62344 21.5953 8.62344 19.4648C8.62344 17.9461 7.78672 17.25 6.67578 16.9828C7.70938 16.6734 8.39141 15.9 8.39141 14.6836C8.39141 13.0242 7.18906 12.2438 5.00938 12.2438H0.7625V22.3266ZM3.85625 20.3719V18.0516H4.30625C4.98828 18.0516 5.39609 18.3609 5.39609 19.1625C5.39609 20.0414 5.00938 20.3719 4.27813 20.3719H3.85625ZM3.85625 16.1109V14.1844H4.30625C4.925 14.1844 5.31172 14.4234 5.31172 15.0844C5.31172 15.8438 4.91094 16.1109 4.29219 16.1109H3.85625Z" fill="black"/>
<path d="M13.7911 22.5375C16.456 22.5375 18.1575 21.2016 18.1575 18.3469V16.1461C18.1575 13.3055 16.456 12.0328 13.7911 12.0328C11.1193 12.0328 9.42472 13.3406 9.42472 16.1461V18.3469C9.42472 21.2016 11.1193 22.5375 13.7911 22.5375ZM12.6872 18.8602V15.7102C12.6872 14.9086 12.9896 14.318 13.7911 14.318C14.5927 14.318 14.895 14.9086 14.895 15.7102V18.8602C14.895 19.6617 14.5927 20.2523 13.7911 20.2523C12.9896 20.2523 12.6872 19.6617 12.6872 18.8602Z" fill="black"/>
<path d="M23.0932 22.5375C25.7018 22.5375 26.9815 21.4547 26.9815 19.5844V12.2438H23.8877V19.4508C23.8877 19.9711 23.6135 20.2664 23.0932 20.2664C22.5799 20.2664 22.2916 19.9711 22.2916 19.4508V12.2438H19.1979V19.5844C19.1979 21.4547 20.4776 22.5375 23.0932 22.5375Z" fill="black"/>
<path d="M28.2046 22.3266H31.0945V16.2305L33.2531 22.3266H36.8601V12.2438H33.9703V17.7211L32.0507 12.2438H28.2046V22.3266Z" fill="black"/>
<path d="M39.9958 22.3266H43.0895V14.6273H45.2762V12.2438H37.809V14.6273H39.9958V22.3266Z" fill="black"/>
<path d="M46.2181 22.3266H49.3119V12.2438H46.2181V22.3266Z" fill="black"/>
<path d="M50.5843 22.3266H57.2007V20.2031H53.678V18.2133H56.5749V16.0898H53.678V14.3602H57.2007V12.2438H50.5843V22.3266Z" fill="black"/>
<path d="M61.7848 22.5305C64.0066 22.5305 65.5816 21.6445 65.5816 19.5C65.5816 17.6789 64.5762 17.018 63.0715 16.2516L61.9535 15.682C61.4473 15.4219 61.1449 15.2391 61.1449 14.7258C61.1449 14.318 61.4051 14.093 61.7707 14.093C62.1574 14.093 62.4246 14.3461 62.4246 14.9016V15.1125H65.4551V14.9367C65.4551 12.9047 63.6973 12.0539 61.8129 12.0539C59.6894 12.0539 58.0371 12.9891 58.0371 15.0563C58.0371 16.7016 58.9652 17.3484 60.2941 18.0164L61.4894 18.6141C62.0801 18.9094 62.3965 19.1063 62.3965 19.718C62.3965 20.2594 62.1504 20.4914 61.7566 20.4914C61.3277 20.4914 61.0746 20.2172 61.0746 19.6547V19.3242H57.9598V19.5422C57.9598 21.5672 59.4715 22.5305 61.7848 22.5305Z" fill="black"/>
<rect x="83.3984" y="5.94531" width="5.65437" height="16.5686" transform="rotate(41.6259 83.3984 5.94531)" fill="black"/>
<rect x="68.4531" y="14.8359" width="5.65437" height="10.9142" transform="rotate(-48.3741 68.4531 14.8359)" fill="black"/>
<rect x="106.125" y="5.94531" width="5.65437" height="16.5686" transform="rotate(41.6259 106.125 5.94531)" fill="black"/>
<rect x="91.1797" y="14.8359" width="5.65437" height="10.9142" transform="rotate(-48.3741 91.1797 14.8359)" fill="black"/>
</svg>
