<svg width="285" height="46" viewBox="0 0 285 46" fill="none" xmlns="http://www.w3.org/2000/svg">
  <path d="M24.4107 8.23214V16.625H23.7143C23.1905 14.4345 22.2143 12.756 20.7857 11.5893C19.3571 10.4226 17.7381 9.83929 15.9286 9.83929C14.4167 9.83929 13.0298 10.2738 11.7679 11.1429C10.506 12.0119 9.58333 13.1488 9 14.5536C8.25 16.3512 7.875 18.3512 7.875 20.5536C7.875 22.7202 8.14881 24.6964 8.69643 26.4821C9.24405 28.256 10.1012 29.6012 11.2679 30.5179C12.4345 31.4226 13.9464 31.875 15.8036 31.875C17.3274 31.875 18.7202 31.5417 19.9821 30.875C21.256 30.2083 22.5952 29.0595 24 27.4286V29.5179C22.6429 30.9345 21.2262 31.9643 19.75 32.6071C18.2857 33.2381 16.5714 33.5536 14.6071 33.5536C12.0238 33.5536 9.72619 33.0357 7.71429 32C5.71429 30.9643 4.16667 29.4762 3.07143 27.5357C1.9881 25.5952 1.44643 23.5298 1.44643 21.3393C1.44643 19.0298 2.04762 16.8393 3.25 14.7679C4.46429 12.6964 6.09524 11.0893 8.14286 9.94643C10.2024 8.80357 12.3869 8.23214 14.6964 8.23214C16.3988 8.23214 18.1964 8.60119 20.0893 9.33929C21.1845 9.76786 21.881 9.98214 22.1786 9.98214C22.5595 9.98214 22.8869 9.84524 23.1607 9.57143C23.4464 9.28572 23.631 8.83929 23.7143 8.23214H24.4107ZM32.9757 15.8036C34.4281 15.8036 35.7793 16.1786 37.0293 16.9286C38.2793 17.6786 39.2257 18.744 39.8686 20.125C40.5233 21.506 40.8507 23.0179 40.8507 24.6607C40.8507 27.0298 40.2495 29.0119 39.0471 30.6071C37.5948 32.5357 35.5888 33.5 33.0293 33.5C30.5174 33.5 28.5829 32.619 27.2257 30.8571C25.8686 29.0952 25.19 27.0536 25.19 24.7321C25.19 22.3393 25.8805 20.256 27.2614 18.4821C28.6543 16.6964 30.559 15.8036 32.9757 15.8036ZM33.0471 17.0714C32.44 17.0714 31.9162 17.3036 31.4757 17.7679C31.0471 18.2202 30.7614 19.125 30.6186 20.4821C30.4876 21.8274 30.4221 23.7024 30.4221 26.1071C30.4221 27.381 30.5055 28.5714 30.6721 29.6786C30.8031 30.5238 31.0829 31.1667 31.5114 31.6071C31.94 32.0476 32.4281 32.2679 32.9757 32.2679C33.5114 32.2679 33.9579 32.119 34.315 31.8214C34.7793 31.4167 35.0888 30.8512 35.2436 30.125C35.4817 28.994 35.6007 26.7083 35.6007 23.2679C35.6007 21.244 35.4876 19.8571 35.2614 19.1071C35.0352 18.3452 34.7019 17.7917 34.2614 17.4464C33.9519 17.1964 33.5471 17.0714 33.0471 17.0714ZM47.755 16.3036V18.5C48.6717 17.5 49.5169 16.8036 50.2907 16.4107C51.0764 16.006 51.9336 15.8036 52.8621 15.8036C53.9336 15.8036 54.8324 16.0536 55.5586 16.5536C56.2848 17.0536 56.8443 17.8155 57.2371 18.8393C58.1895 17.7679 59.1002 16.994 59.9693 16.5179C60.8502 16.0417 61.7669 15.8036 62.7193 15.8036C63.874 15.8036 64.7907 16.0714 65.4693 16.6071C66.1598 17.131 66.6359 17.8036 66.8979 18.625C67.1717 19.4345 67.3086 20.7321 67.3086 22.5179V29.3571C67.3086 30.6429 67.4217 31.4405 67.6479 31.75C67.8859 32.0595 68.374 32.2619 69.1121 32.3571V33H60.4871V32.3571C61.1657 32.2976 61.6657 32.0357 61.9871 31.5714C62.2014 31.25 62.3086 30.5119 62.3086 29.3571V22.1786C62.3086 20.6905 62.249 19.744 62.13 19.3393C62.0109 18.9345 61.8205 18.6369 61.5586 18.4464C61.3086 18.244 61.0109 18.1429 60.6657 18.1429C60.1538 18.1429 59.6359 18.3333 59.1121 18.7143C58.5883 19.0833 58.0586 19.6429 57.5229 20.3929V29.3571C57.5229 30.5595 57.624 31.3155 57.8264 31.625C58.1002 32.0655 58.624 32.3095 59.3979 32.3571V33H50.755V32.3571C51.2193 32.3333 51.5824 32.2202 51.8443 32.0179C52.1181 31.8036 52.2967 31.5536 52.38 31.2679C52.4752 30.9702 52.5229 30.3333 52.5229 29.3571V22.1786C52.5229 20.6667 52.4633 19.7202 52.3443 19.3393C52.2252 18.9583 52.0229 18.6607 51.7371 18.4464C51.4633 18.2321 51.1657 18.125 50.8443 18.125C50.3681 18.125 49.9336 18.25 49.5407 18.5C48.9812 18.869 48.386 19.5 47.755 20.3929V29.3571C47.755 30.5357 47.8681 31.3155 48.0943 31.6964C48.3324 32.0655 48.8205 32.2857 49.5586 32.3571V33H40.9514V32.3571C41.6538 32.2857 42.1538 32.0595 42.4514 31.6786C42.6538 31.4167 42.755 30.6429 42.755 29.3571V19.9286C42.755 18.6667 42.636 17.881 42.3979 17.5714C42.1717 17.2619 41.6895 17.0595 40.9514 16.9643V16.3036H47.755ZM75.6593 16.3036V18.5C76.5759 17.5 77.4212 16.8036 78.195 16.4107C78.9807 16.006 79.8379 15.8036 80.7664 15.8036C81.8379 15.8036 82.7367 16.0536 83.4629 16.5536C84.189 17.0536 84.7486 17.8155 85.1414 18.8393C86.0938 17.7679 87.0045 16.994 87.8736 16.5179C88.7545 16.0417 89.6712 15.8036 90.6236 15.8036C91.7783 15.8036 92.695 16.0714 93.3736 16.6071C94.064 17.131 94.5402 17.8036 94.8021 18.625C95.0759 19.4345 95.2128 20.7321 95.2128 22.5179V29.3571C95.2128 30.6429 95.3259 31.4405 95.5521 31.75C95.7902 32.0595 96.2783 32.2619 97.0164 32.3571V33H88.3914V32.3571C89.07 32.2976 89.57 32.0357 89.8914 31.5714C90.1057 31.25 90.2129 30.5119 90.2129 29.3571V22.1786C90.2129 20.6905 90.1533 19.744 90.0343 19.3393C89.9152 18.9345 89.7248 18.6369 89.4629 18.4464C89.2129 18.244 88.9152 18.1429 88.57 18.1429C88.0581 18.1429 87.5402 18.3333 87.0164 18.7143C86.4926 19.0833 85.9629 19.6429 85.4271 20.3929V29.3571C85.4271 30.5595 85.5283 31.3155 85.7307 31.625C86.0045 32.0655 86.5283 32.3095 87.3021 32.3571V33H78.6593V32.3571C79.1236 32.3333 79.4867 32.2202 79.7486 32.0179C80.0224 31.8036 80.2009 31.5536 80.2843 31.2679C80.3795 30.9702 80.4271 30.3333 80.4271 29.3571V22.1786C80.4271 20.6667 80.3676 19.7202 80.2486 19.3393C80.1295 18.9583 79.9271 18.6607 79.6414 18.4464C79.3676 18.2321 79.07 18.125 78.7486 18.125C78.2724 18.125 77.8379 18.25 77.445 18.5C76.8855 18.869 76.2902 19.5 75.6593 20.3929V29.3571C75.6593 30.5357 75.7724 31.3155 75.9986 31.6964C76.2367 32.0655 76.7248 32.2857 77.4629 32.3571V33H68.8557V32.3571C69.5581 32.2857 70.0581 32.0595 70.3557 31.6786C70.5581 31.4167 70.6593 30.6429 70.6593 29.3571V19.9286C70.6593 18.6667 70.5402 17.881 70.3021 17.5714C70.0759 17.2619 69.5938 17.0595 68.8557 16.9643V16.3036H75.6593ZM112.76 16.3036V29.375C112.76 30.6488 112.879 31.4464 113.117 31.7679C113.355 32.0774 113.837 32.2738 114.564 32.3571V33H107.76V30.7679C106.962 31.7202 106.165 32.4167 105.367 32.8571C104.57 33.2857 103.677 33.5 102.689 33.5C101.748 33.5 100.909 33.2143 100.171 32.6429C99.4445 32.0595 98.9564 31.381 98.7064 30.6071C98.4564 29.8333 98.3314 28.4821 98.3314 26.5536V19.9286C98.3314 18.6667 98.2124 17.881 97.9743 17.5714C97.7481 17.2619 97.2659 17.0595 96.5278 16.9643V16.3036H103.331V27.7143C103.331 28.9048 103.385 29.6726 103.492 30.0179C103.611 30.3631 103.79 30.625 104.028 30.8036C104.278 30.9821 104.564 31.0714 104.885 31.0714C105.314 31.0714 105.7 30.9583 106.046 30.7321C106.522 30.4226 107.093 29.7976 107.76 28.8571V19.9286C107.76 18.6667 107.641 17.881 107.403 17.5714C107.177 17.2619 106.695 17.0595 105.956 16.9643V16.3036H112.76ZM121.254 16.3036V18.4643C122.111 17.5357 122.932 16.8631 123.718 16.4464C124.504 16.0179 125.349 15.8036 126.254 15.8036C127.337 15.8036 128.236 16.1071 128.95 16.7143C129.664 17.3095 130.14 18.0536 130.379 18.9464C130.569 19.625 130.664 20.9286 130.664 22.8571V29.3571C130.664 30.6429 130.777 31.4464 131.004 31.7679C131.242 32.0774 131.73 32.2738 132.468 32.3571V33H124.021V32.3571C124.652 32.2738 125.105 32.0119 125.379 31.5714C125.569 31.2738 125.664 30.5357 125.664 29.3571V21.9286C125.664 20.5595 125.611 19.6964 125.504 19.3393C125.396 18.9821 125.212 18.7083 124.95 18.5179C124.7 18.3155 124.42 18.2143 124.111 18.2143C123.087 18.2143 122.135 18.9464 121.254 20.4107V29.3571C121.254 30.6071 121.367 31.3988 121.593 31.7321C121.831 32.0655 122.265 32.2738 122.896 32.3571V33H114.45V32.3571C115.152 32.2857 115.652 32.0595 115.95 31.6786C116.152 31.4167 116.254 30.6429 116.254 29.3571V19.9286C116.254 18.6667 116.135 17.881 115.896 17.5714C115.67 17.2619 115.188 17.0595 114.45 16.9643V16.3036H121.254ZM136.247 8.21429C137.021 8.21429 137.676 8.4881 138.211 9.03572C138.747 9.57143 139.015 10.2202 139.015 10.9821C139.015 11.744 138.741 12.3929 138.194 12.9286C137.658 13.4643 137.009 13.7321 136.247 13.7321C135.485 13.7321 134.836 13.4643 134.301 12.9286C133.765 12.3929 133.497 11.744 133.497 10.9821C133.497 10.2202 133.765 9.57143 134.301 9.03572C134.836 8.4881 135.485 8.21429 136.247 8.21429ZM138.747 16.3036V29.5357C138.747 30.7143 138.884 31.4702 139.158 31.8036C139.432 32.125 139.967 32.3095 140.765 32.3571V33H131.747V32.3571C132.485 32.3333 133.033 32.119 133.39 31.7143C133.628 31.4405 133.747 30.7143 133.747 29.5357V19.7857C133.747 18.6071 133.61 17.8571 133.336 17.5357C133.063 17.2024 132.533 17.0119 131.747 16.9643V16.3036H138.747ZM146.473 10.1964V16.3036H150.437V18.0714H146.473V28.375C146.473 29.3393 146.515 29.9643 146.598 30.25C146.693 30.5238 146.854 30.75 147.08 30.9286C147.306 31.0952 147.515 31.1786 147.705 31.1786C148.479 31.1786 149.211 30.5893 149.901 29.4107L150.437 29.8036C149.473 32.0893 147.907 33.2321 145.741 33.2321C144.681 33.2321 143.782 32.9405 143.044 32.3571C142.318 31.7619 141.854 31.1012 141.651 30.375C141.532 29.9702 141.473 28.875 141.473 27.0893V18.0714H139.294V17.4464C140.794 16.3869 142.068 15.2738 143.116 14.1071C144.175 12.9405 145.098 11.6369 145.884 10.1964H146.473ZM157.127 33.6786L151.734 21.3036C150.925 19.4345 150.324 18.2857 149.931 17.8571C149.55 17.4286 149.085 17.131 148.538 16.9643V16.3036H157.413V16.9643C156.83 16.9881 156.419 17.1012 156.181 17.3036C155.943 17.506 155.824 17.75 155.824 18.0357C155.824 18.4881 156.121 19.381 156.716 20.7143L159.574 27.25L161.52 22.1964C162.222 20.3988 162.574 19.1488 162.574 18.4464C162.574 18.006 162.425 17.6548 162.127 17.3929C161.841 17.131 161.33 16.9881 160.591 16.9643V16.3036H166.181V16.9643C165.633 17.0238 165.187 17.2381 164.841 17.6071C164.496 17.9643 163.919 19.1964 163.109 21.3036L158.341 33.6786C157.139 36.7738 156.246 38.6786 155.663 39.3929C154.841 40.3929 153.812 40.8929 152.574 40.8929C151.585 40.8929 150.782 40.6071 150.163 40.0357C149.556 39.4762 149.252 38.7976 149.252 38C149.252 37.3095 149.46 36.7381 149.877 36.2857C150.306 35.8333 150.83 35.6071 151.449 35.6071C152.044 35.6071 152.52 35.7976 152.877 36.1786C153.246 36.5595 153.437 37.1488 153.449 37.9464C153.46 38.3988 153.514 38.6905 153.609 38.8214C153.705 38.9524 153.841 39.0179 154.02 39.0179C154.306 39.0179 154.609 38.8452 154.931 38.5C155.407 38 155.966 36.8571 156.609 35.0714L157.127 33.6786ZM171.025 33V32.3393H171.829C172.531 32.3393 173.067 32.2321 173.436 32.0179C173.817 31.7917 174.096 31.4881 174.275 31.1071C174.382 30.8571 174.436 30.1071 174.436 28.8571V12.9286C174.436 11.6905 174.37 10.9167 174.239 10.6071C174.108 10.2976 173.84 10.0298 173.436 9.80357C173.043 9.56548 172.507 9.44643 171.829 9.44643H171.025V8.78572H181.864C184.757 8.78572 187.085 9.17857 188.846 9.96429C191.001 10.9286 192.632 12.3869 193.739 14.3393C194.858 16.2917 195.418 18.5 195.418 20.9643C195.418 22.6667 195.144 24.2381 194.596 25.6786C194.049 27.1071 193.34 28.2917 192.471 29.2321C191.602 30.1607 190.596 30.9107 189.454 31.4821C188.323 32.0417 186.936 32.4762 185.293 32.7857C184.567 32.9286 183.424 33 181.864 33H171.025ZM180.257 10.1607V29.0536C180.257 30.0536 180.305 30.6667 180.4 30.8929C180.495 31.119 180.656 31.2917 180.882 31.4107C181.204 31.5893 181.668 31.6786 182.275 31.6786C184.263 31.6786 185.781 31 186.829 29.6429C188.257 27.8095 188.971 24.9643 188.971 21.1071C188.971 18 188.483 15.5179 187.507 13.6607C186.733 12.2083 185.739 11.2202 184.525 10.6964C183.668 10.3274 182.245 10.1488 180.257 10.1607ZM202.572 16.3036V20.0893C203.679 18.3631 204.65 17.2202 205.483 16.6607C206.316 16.0893 207.12 15.8036 207.894 15.8036C208.56 15.8036 209.09 16.0119 209.483 16.4286C209.888 16.8333 210.09 17.4107 210.09 18.1607C210.09 18.9583 209.894 19.5774 209.501 20.0179C209.12 20.4583 208.655 20.6786 208.108 20.6786C207.477 20.6786 206.929 20.4762 206.465 20.0714C206.001 19.6667 205.727 19.4405 205.644 19.3929C205.525 19.3214 205.388 19.2857 205.233 19.2857C204.888 19.2857 204.56 19.4167 204.251 19.6786C203.763 20.0833 203.394 20.6607 203.144 21.4107C202.763 22.5655 202.572 23.8393 202.572 25.2321V29.0714L202.59 30.0714C202.59 30.75 202.632 31.1845 202.715 31.375C202.858 31.6964 203.066 31.9345 203.34 32.0893C203.626 32.2321 204.102 32.3214 204.769 32.3571V33H195.751V32.3571C196.477 32.2976 196.965 32.1012 197.215 31.7679C197.477 31.4226 197.608 30.5238 197.608 29.0714V19.8393C197.608 18.8869 197.56 18.2798 197.465 18.0179C197.346 17.6845 197.173 17.4405 196.947 17.2857C196.721 17.131 196.322 17.0238 195.751 16.9643V16.3036H202.572ZM213.351 8.21429C214.125 8.21429 214.78 8.4881 215.316 9.03572C215.851 9.57143 216.119 10.2202 216.119 10.9821C216.119 11.744 215.845 12.3929 215.298 12.9286C214.762 13.4643 214.113 13.7321 213.351 13.7321C212.59 13.7321 211.941 13.4643 211.405 12.9286C210.869 12.3929 210.601 11.744 210.601 10.9821C210.601 10.2202 210.869 9.57143 211.405 9.03572C211.941 8.4881 212.59 8.21429 213.351 8.21429ZM215.851 16.3036V29.5357C215.851 30.7143 215.988 31.4702 216.262 31.8036C216.536 32.125 217.072 32.3095 217.869 32.3571V33H208.851V32.3571C209.59 32.3333 210.137 32.119 210.494 31.7143C210.732 31.4405 210.851 30.7143 210.851 29.5357V19.7857C210.851 18.6071 210.715 17.8571 210.441 17.5357C210.167 17.2024 209.637 17.0119 208.851 16.9643V16.3036H215.851ZM224.488 33.5L218.863 20.5536C218.184 18.994 217.655 18.006 217.274 17.5893C217 17.2798 216.595 17.0714 216.059 16.9643V16.3036H224.934V16.9643C224.375 16.9643 223.994 17.0655 223.791 17.2679C223.506 17.5298 223.363 17.8393 223.363 18.1964C223.363 18.6369 223.625 19.4643 224.149 20.6786L226.899 26.9464L229.095 21.5357C229.726 19.9881 230.041 18.8929 230.041 18.25C230.041 17.881 229.905 17.5833 229.631 17.3571C229.369 17.119 228.899 16.9881 228.22 16.9643V16.3036H233.684V16.9643C233.16 17.0357 232.732 17.2321 232.399 17.5536C232.065 17.875 231.565 18.8214 230.899 20.3929L225.327 33.5H224.488ZM246.821 24.0536H237.66C237.767 26.2679 238.356 28.0179 239.428 29.3036C240.249 30.2917 241.237 30.7857 242.392 30.7857C243.106 30.7857 243.755 30.5893 244.339 30.1964C244.922 29.7917 245.547 29.0714 246.214 28.0357L246.821 28.4286C245.916 30.2738 244.916 31.5833 243.821 32.3571C242.725 33.119 241.458 33.5 240.017 33.5C237.541 33.5 235.666 32.5476 234.392 30.6429C233.368 29.1071 232.856 27.2024 232.856 24.9286C232.856 22.1429 233.606 19.9286 235.106 18.2857C236.618 16.631 238.386 15.8036 240.41 15.8036C242.1 15.8036 243.565 16.5 244.803 17.8929C246.053 19.2738 246.725 21.3274 246.821 24.0536ZM242.428 22.8571C242.428 20.9405 242.321 19.625 242.106 18.9107C241.904 18.1964 241.583 17.6548 241.142 17.2857C240.892 17.0714 240.559 16.9643 240.142 16.9643C239.523 16.9643 239.017 17.2679 238.624 17.875C237.922 18.9345 237.571 20.3869 237.571 22.2321V22.8571H242.428ZM253.189 16.3036V18.4643C254.046 17.5357 254.868 16.8631 255.654 16.4464C256.439 16.0179 257.285 15.8036 258.189 15.8036C259.273 15.8036 260.171 16.1071 260.886 16.7143C261.6 17.3095 262.076 18.0536 262.314 18.9464C262.505 19.625 262.6 20.9286 262.6 22.8571V29.3571C262.6 30.6429 262.713 31.4464 262.939 31.7679C263.177 32.0774 263.665 32.2738 264.404 32.3571V33H255.957V32.3571C256.588 32.2738 257.04 32.0119 257.314 31.5714C257.505 31.2738 257.6 30.5357 257.6 29.3571V21.9286C257.6 20.5595 257.546 19.6964 257.439 19.3393C257.332 18.9821 257.148 18.7083 256.886 18.5179C256.636 18.3155 256.356 18.2143 256.046 18.2143C255.023 18.2143 254.07 18.9464 253.189 20.4107V29.3571C253.189 30.6071 253.302 31.3988 253.529 31.7321C253.767 32.0655 254.201 32.2738 254.832 32.3571V33H246.386V32.3571C247.088 32.2857 247.588 32.0595 247.886 31.6786C248.088 31.4167 248.189 30.6429 248.189 29.3571V19.9286C248.189 18.6667 248.07 17.881 247.832 17.5714C247.606 17.2619 247.124 17.0595 246.386 16.9643V16.3036H253.189Z" fill="black"/>
  <path d="M271.927 7.27646V9.17527H268.718V18H266.463V9.17527H263.24V7.27646H271.927ZM274.252 18H272.164V7.27646H275.423L277.373 15.7083L279.308 7.27646H282.531V18H280.443V10.7467C280.443 10.5381 280.446 10.2471 280.45 9.87368C280.455 9.49537 280.458 9.20437 280.458 9.00066L278.428 18H276.253L274.237 9.00066C274.237 9.20437 274.24 9.49537 274.245 9.87368C274.25 10.2471 274.252 10.5381 274.252 10.7467V18Z" fill="black"/>
</svg>
