<svg width="208" height="17" viewBox="0 0 208 17" fill="none" xmlns="http://www.w3.org/2000/svg">
<path d="M8.17022 17.002C6.60496 17.002 5.20793 16.6509 3.97913 15.9487C2.76496 15.2466 1.8141 14.2957 1.12656 13.0962C0.453645 11.882 0.117188 10.5508 0.117188 9.10255C0.117188 7.65432 0.453645 6.33044 1.12656 5.1309C1.8141 3.91673 2.76496 2.95855 3.97913 2.25638C5.20793 1.55421 6.60496 1.20312 8.17022 1.20312C9.25273 1.20312 10.2694 1.41524 11.2203 1.83947C12.1711 2.24907 12.9903 2.8269 13.6779 3.57295L11.4397 6.07444C11.0155 5.65021 10.5181 5.32107 9.94759 5.08701C9.3917 4.83832 8.79924 4.71398 8.17022 4.71398C7.36565 4.71398 6.63422 4.90415 5.97593 5.2845C5.33227 5.66484 4.82027 6.19147 4.43993 6.86438C4.07422 7.5373 3.89136 8.28335 3.89136 9.10255C3.89136 9.92175 4.07422 10.6678 4.43993 11.3407C4.82027 12.0136 5.33227 12.5403 5.97593 12.9206C6.63422 13.301 7.36565 13.4911 8.17022 13.4911C8.79924 13.4911 9.3917 13.3741 9.94759 13.14C10.5181 12.8914 11.0155 12.5549 11.4397 12.1307L13.6998 14.6322C13.0123 15.3782 12.1858 15.9634 11.2203 16.3876C10.2694 16.7972 9.25273 17.002 8.17022 17.002Z" fill="black"/>
<path d="M21.4808 17.002C19.9594 17.002 18.5843 16.6509 17.3555 15.9487C16.1267 15.2466 15.1612 14.2957 14.4591 13.0962C13.7715 11.882 13.4278 10.5508 13.4278 9.10255C13.4278 7.65432 13.7715 6.33044 14.4591 5.1309C15.1612 3.91673 16.1267 2.95855 17.3555 2.25638C18.5843 1.55421 19.9594 1.20312 21.4808 1.20312C23.0022 1.20312 24.3772 1.55421 25.606 2.25638C26.8348 2.95855 27.793 3.91673 28.4806 5.1309C29.1827 6.33044 29.5338 7.65432 29.5338 9.10255C29.5338 10.5508 29.1827 11.882 28.4806 13.0962C27.793 14.2957 26.8348 15.2466 25.606 15.9487C24.3772 16.6509 23.0022 17.002 21.4808 17.002ZM21.4808 13.4911C22.2561 13.4911 22.9656 13.2936 23.6092 12.8987C24.2529 12.5037 24.7649 11.9698 25.1452 11.2968C25.5256 10.6239 25.7158 9.8925 25.7158 9.10255C25.7158 8.31261 25.5256 7.58118 25.1452 6.90827C24.7649 6.23535 24.2529 5.70141 23.6092 5.30644C22.9656 4.91147 22.2561 4.71398 21.4808 4.71398C20.7055 4.71398 19.996 4.91147 19.3523 5.30644C18.7087 5.70141 18.1967 6.23535 17.8163 6.90827C17.436 7.58118 17.2458 8.31261 17.2458 9.10255C17.2458 9.8925 17.436 10.6239 17.8163 11.2968C18.1967 11.9698 18.7087 12.5037 19.3523 12.8987C19.996 13.2936 20.7055 13.4911 21.4808 13.4911Z" fill="black"/>
<path d="M41.0495 17.002C40.1864 17.002 39.4111 16.8045 38.7236 16.4095C38.0507 15.9999 37.5167 15.444 37.1218 14.7419C36.7414 14.0397 36.5512 13.2498 36.5512 12.372V5.61364C36.5512 5.29181 36.4488 5.0285 36.244 4.8237C36.0392 4.60427 35.7759 4.49455 35.4541 4.49455C35.1323 4.49455 34.869 4.60427 34.6642 4.8237C34.4594 5.0285 34.357 5.29181 34.357 5.61364V16.7826H30.8461V5.94278C30.8461 5.00655 31.0436 4.18004 31.4386 3.46324C31.8335 2.74644 32.3821 2.19055 33.0843 1.79558C33.7864 1.40061 34.5764 1.20312 35.4541 1.20312C36.3318 1.20312 37.1218 1.40061 37.8239 1.79558C38.5261 2.19055 39.0747 2.74644 39.4696 3.46324C39.8646 4.18004 40.0621 5.00655 40.0621 5.94278V12.7012C40.0621 12.9938 40.1572 13.2351 40.3474 13.4253C40.5375 13.6155 40.7716 13.7106 41.0495 13.7106C41.3275 13.7106 41.5615 13.6155 41.7517 13.4253C41.9419 13.2351 42.037 12.9938 42.037 12.7012V5.94278C42.037 5.00655 42.2344 4.18004 42.6294 3.46324C43.0244 2.74644 43.573 2.19055 44.2751 1.79558C44.9773 1.40061 45.7672 1.20312 46.645 1.20312C47.5227 1.20312 48.3126 1.40061 49.0148 1.79558C49.717 2.19055 50.2655 2.74644 50.6605 3.46324C51.0555 4.18004 51.253 5.00655 51.253 5.94278V16.7826H47.7421V5.61364C47.7421 5.29181 47.6397 5.0285 47.4349 4.8237C47.2301 4.60427 46.9668 4.49455 46.645 4.49455C46.3231 4.49455 46.0598 4.60427 45.855 4.8237C45.6502 5.0285 45.5478 5.29181 45.5478 5.61364V12.372C45.5478 13.2498 45.3503 14.0397 44.9554 14.7419C44.575 15.444 44.0411 15.9999 43.3535 16.4095C42.6806 16.8045 41.9126 17.002 41.0495 17.002Z" fill="black"/>
<path d="M63.403 17.002C62.5399 17.002 61.7646 16.8045 61.077 16.4095C60.4041 15.9999 59.8702 15.444 59.4752 14.7419C59.0948 14.0397 58.9047 13.2498 58.9047 12.372V5.61364C58.9047 5.29181 58.8023 5.0285 58.5975 4.8237C58.3927 4.60427 58.1294 4.49455 57.8075 4.49455C57.4857 4.49455 57.2224 4.60427 57.0176 4.8237C56.8128 5.0285 56.7104 5.29181 56.7104 5.61364V16.7826H53.1995V5.94278C53.1995 5.00655 53.397 4.18004 53.792 3.46324C54.187 2.74644 54.7355 2.19055 55.4377 1.79558C56.1399 1.40061 56.9298 1.20312 57.8075 1.20312C58.6852 1.20312 59.4752 1.40061 60.1774 1.79558C60.8795 2.19055 61.4281 2.74644 61.8231 3.46324C62.218 4.18004 62.4155 5.00655 62.4155 5.94278V12.7012C62.4155 12.9938 62.5106 13.2351 62.7008 13.4253C62.891 13.6155 63.125 13.7106 63.403 13.7106C63.6809 13.7106 63.915 13.6155 64.1051 13.4253C64.2953 13.2351 64.3904 12.9938 64.3904 12.7012V5.94278C64.3904 5.00655 64.5879 4.18004 64.9828 3.46324C65.3778 2.74644 65.9264 2.19055 66.6286 1.79558C67.3307 1.40061 68.1207 1.20312 68.9984 1.20312C69.8761 1.20312 70.666 1.40061 71.3682 1.79558C72.0704 2.19055 72.619 2.74644 73.0139 3.46324C73.4089 4.18004 73.6064 5.00655 73.6064 5.94278V16.7826H70.0955V5.61364C70.0955 5.29181 69.9931 5.0285 69.7883 4.8237C69.5835 4.60427 69.3202 4.49455 68.9984 4.49455C68.6766 4.49455 68.4132 4.60427 68.2084 4.8237C68.0036 5.0285 67.9012 5.29181 67.9012 5.61364V12.372C67.9012 13.2498 67.7038 14.0397 67.3088 14.7419C66.9284 15.444 66.3945 15.9999 65.707 16.4095C65.034 16.8045 64.266 17.002 63.403 17.002Z" fill="black"/>
<path d="M81.9383 17.002C80.6949 17.002 79.5831 16.7387 78.603 16.212C77.6375 15.6854 76.8768 14.932 76.321 13.9519C75.7797 12.9718 75.5091 11.8381 75.5091 10.5508V1.42255H79.0199V10.7263C79.0199 11.2968 79.1443 11.8088 79.393 12.2623C79.6416 12.7158 79.9854 13.0742 80.4243 13.3375C80.8778 13.5862 81.3824 13.7106 81.9383 13.7106C82.4942 13.7106 82.9916 13.5862 83.4304 13.3375C83.8839 13.0742 84.235 12.7158 84.4837 12.2623C84.7324 11.8088 84.8567 11.2968 84.8567 10.7263V1.42255H88.3676V10.5508C88.3676 11.8381 88.0896 12.9718 87.5338 13.9519C86.9925 14.932 86.2318 15.6854 85.2517 16.212C84.2862 16.7387 83.1818 17.002 81.9383 17.002Z" fill="black"/>
<path d="M101.249 17.002C100.328 17.002 99.5011 16.7972 98.7697 16.3876C98.0383 15.9634 97.4604 15.3855 97.0362 14.6541C96.6266 13.9227 96.4218 13.1035 96.4218 12.1965V5.83307C96.4218 5.39421 96.2975 5.04312 96.0488 4.77981C95.8001 4.5165 95.4856 4.38484 95.1052 4.38484C94.7249 4.38484 94.4104 4.5165 94.1617 4.77981C93.913 5.04312 93.7887 5.39421 93.7887 5.83307V16.7826H90.2778V6.0525C90.2778 5.11627 90.4826 4.28244 90.8922 3.55101C91.3164 2.80495 91.8943 2.22712 92.6257 1.81752C93.3571 1.40792 94.1836 1.20312 95.1052 1.20312C96.0269 1.20312 96.8534 1.40792 97.5848 1.81752C98.3162 2.22712 98.8867 2.80495 99.2963 3.55101C99.7206 4.28244 99.9327 5.11627 99.9327 6.0525V12.3501C99.9327 12.789 100.057 13.14 100.306 13.4034C100.554 13.6667 100.869 13.7983 101.249 13.7983C101.63 13.7983 101.944 13.6667 102.193 13.4034C102.441 13.14 102.566 12.789 102.566 12.3501V1.42255H106.077V12.1965C106.077 13.1035 105.865 13.9227 105.44 14.6541C105.031 15.3855 104.46 15.9634 103.729 16.3876C102.997 16.7972 102.171 17.002 101.249 17.002Z" fill="black"/>
<path d="M108.134 16.7826V1.42255H111.645V16.7826H108.134Z" fill="black"/>
<path d="M117.875 6.5133C117.875 6.0013 117.7 5.57707 117.349 5.24061C117.012 4.88953 116.588 4.71398 116.076 4.71398H112.719V1.42255H126.543V4.71398H123.185C122.673 4.71398 122.242 4.88953 121.891 5.24061C121.554 5.57707 121.386 6.0013 121.386 6.5133V16.7826H117.875V6.5133Z" fill="black"/>
<path d="M132.096 16.7826V9.65112L127.071 4.29707C126.69 3.88747 126.493 3.4413 126.478 2.95855C126.478 2.47581 126.661 2.05158 127.027 1.68587C127.393 1.33478 127.824 1.18118 128.321 1.22507C128.819 1.26895 129.258 1.4957 129.638 1.9053L135.036 7.72015H132.82L138.13 1.92724C138.51 1.51764 138.942 1.2909 139.425 1.24701C139.922 1.1885 140.353 1.33478 140.719 1.68587C141.085 2.03695 141.253 2.45387 141.224 2.93661C141.209 3.41935 141.012 3.86552 140.631 4.27512L135.606 9.65112V16.7826H132.096Z" fill="black"/>
<rect x="158.43" y="0.40625" width="5.65437" height="16.5686" transform="rotate(41.6259 158.43 0.40625)" fill="black"/>
<rect x="143.492" y="9.29688" width="5.65437" height="10.9142" transform="rotate(-48.3741 143.492 9.29688)" fill="black"/>
<rect x="180.555" y="0.40625" width="5.65437" height="16.5686" transform="rotate(41.6259 180.555 0.40625)" fill="black"/>
<rect x="165.617" y="9.29688" width="5.65437" height="10.9142" transform="rotate(-48.3741 165.617 9.29688)" fill="black"/>
<rect x="202.68" y="0.40625" width="5.65437" height="16.5686" transform="rotate(41.6259 202.68 0.40625)" fill="black"/>
<rect x="187.742" y="9.29688" width="5.65437" height="10.9142" transform="rotate(-48.3741 187.742 9.29688)" fill="black"/>
</svg>
