<svg width="126" height="126" viewBox="0 0 126 126" fill="none" xmlns="http://www.w3.org/2000/svg">
<circle cx="62.6113" cy="63" r="62.5" fill="#EF692B"/>
<path d="M62.6107 119C51.5702 119 40.7777 115.716 31.5979 109.562C22.4181 103.409 15.2633 94.6629 11.0383 84.4303C6.81325 74.1976 5.70779 62.9379 7.86168 52.075C10.0156 41.212 15.3321 31.2338 23.1389 23.402C30.9457 15.5703 40.8921 10.2368 51.7205 8.07605C62.5488 5.91528 73.7727 7.02426 83.9727 11.2628C94.1728 15.5013 102.891 22.6789 109.025 31.8881C115.158 41.0972 118.432 51.9243 118.432 63C118.415 77.8467 112.528 92.0801 102.063 102.578C91.5982 113.076 77.4101 118.982 62.6107 119V119ZM62.6107 9.26969C52.0123 9.26969 41.652 12.4228 32.8401 18.3302C24.0281 24.2377 17.1604 32.634 13.1056 42.4574C9.05083 52.2807 7.99105 63.0898 10.0603 73.5174C12.1296 83.945 17.235 93.5228 24.7307 101.039C32.2265 108.556 41.7759 113.674 52.1712 115.745C62.5665 117.817 73.3407 116.749 83.131 112.677C92.9214 108.605 101.288 101.712 107.173 92.8696C113.058 84.027 116.197 73.6323 116.192 63C116.175 48.7514 110.523 35.0919 100.478 25.0187C90.4323 14.9455 76.8139 9.28158 62.6107 9.26969V9.26969Z" fill="black"/>
<path d="M83.3405 49.7102L77.9555 42.8962C77.5625 42.3895 77.068 41.9774 76.5063 41.6883C75.9446 41.3992 75.3289 41.24 74.702 41.2218C74.0733 41.2079 73.4487 41.3312 72.8689 41.5836C72.2891 41.836 71.767 42.2119 71.3363 42.6869L39.7888 77.5711C39.3975 78.0024 39.1797 78.5722 39.1797 79.1642C39.1797 79.7562 39.3975 80.3259 39.7888 80.7572C39.9978 81.0387 40.2662 81.2667 40.5735 81.424C40.8808 81.5812 41.2187 81.6634 41.5614 81.6642C41.9669 81.6758 42.3685 81.5798 42.7281 81.3851L54.8445 73.6873C55.1416 73.5683 55.427 73.4203 55.6972 73.2455L82.2186 56.4778C82.7498 56.1347 83.2059 55.6802 83.5576 55.1435C83.9092 54.6068 84.1486 53.9998 84.2605 53.3615C84.3618 52.72 84.3323 52.0637 84.1738 51.4348C84.0154 50.8059 83.7315 50.2184 83.3405 49.7102Z" fill="black"/>
</svg>
