<?xml version="1.0" encoding="UTF-8"?>
<svg version="1.1" viewBox="0 0 170.23 31.35" xmlns="http://www.w3.org/2000/svg">
    <path d="m31.21-0.75002-13.14 9.72 2.45-5.73z" fill="#e17726" stroke="#e17726" stroke-linecap="round"
        stroke-linejoin="round" stroke-width=".25" />
    <path
        d="m0.91-0.75002 13.02 9.8-2.33-5.8zm25.57 22.53-3.5 5.34 7.49 2.06 2.14-7.28zm-26.96 0.12 2.13 7.28 7.47-2.06-3.48-5.34z"
        fill="#e27625" stroke="#e27625" stroke-linecap="round" stroke-linejoin="round" stroke-width=".25" />
    <path
        d="m8.72 12.76-2.08 3.14 7.4 0.34-0.24-7.97-5.08 4.5zm14.68 0.01-5.16-4.6-0.17 8.07 7.4-0.34zm-14.28 14.35 4.49-2.16-3.86-3zm9.4-2.17 4.46 2.17-0.6-5.17z"
        fill="#e27625" stroke="#e27625" stroke-linecap="round" stroke-linejoin="round" stroke-width=".25" />
    <path d="m22.98 27.12-4.46-2.16 0.36 2.9-0.04 1.23zm-13.86 0 4.16 1.97-0.03-1.23 0.36-2.9z" fill="#d5bfb2"
        stroke="#d5bfb2" stroke-linecap="round" stroke-linejoin="round" stroke-width=".25" />
    <path d="m13.35 20.03-3.7-1.08 2.62-1.2 1.09 2.28zm5.41 0 1.1-2.29 2.63 1.2-3.73 1.1z" fill="#233447"
        stroke="#233447" stroke-linecap="round" stroke-linejoin="round" stroke-width=".25" />
    <path
        d="m9.12 27.12 0.65-5.34-4.13 0.12zm13.23-5.34 0.63 5.34 3.5-5.22zm3.13-5.88-7.4 0.34 0.68 3.8 1.1-2.3 2.63 1.2zm-15.83 3.05 2.62-1.2 1.09 2.28 0.69-3.8-7.4-0.33z"
        fill="#cc6228" stroke="#cc6228" stroke-linecap="round" stroke-linejoin="round" stroke-width=".25" />
    <path
        d="m6.65 15.9 3.1 6.05-0.1-3zm15.84 3.05-0.12 3 3.1-6.05zm-8.44-2.71-0.7 3.8 0.88 4.48 0.2-5.91zm4.02 0-0.36 2.36 0.18 5.92 0.87-4.49-0.69-3.8z"
        fill="#e27525" stroke="#e27525" stroke-linecap="round" stroke-linejoin="round" stroke-width=".25" />
    <path d="m18.76 20.03-0.87 4.49 0.63 0.44 3.85-3 0.12-3.01zm-9.11-1.08 0.1 3 3.86 3 0.62-0.43-0.87-4.49-3.72-1.08z"
        fill="#f5841f" stroke="#f5841f" stroke-linecap="round" stroke-linejoin="round" stroke-width=".25" />
    <path
        d="m18.85 29.09 0.03-1.23-0.34-0.28h-4.96l-0.33 0.28 0.03 1.23-4.16-1.97 1.46 1.2 2.95 2.03h5.05l2.96-2.04 1.44-1.19-4.14 1.97z"
        fill="#c0ac9d" stroke="#c0ac9d" stroke-linecap="round" stroke-linejoin="round" stroke-width=".25" />
    <path d="m18.52 24.95-0.63-0.43h-3.66l-0.62 0.44-0.36 2.9 0.33-0.28h4.96l0.34 0.28-0.36-2.9z" fill="#161616"
        stroke="#161616" stroke-linecap="round" stroke-linejoin="round" stroke-width=".25" />
    <path
        d="m31.77 9.6 1.1-5.35-1.66-5-12.7 9.4 4.89 4.11 6.9 2.01 1.52-1.77-0.66-0.48 1.05-0.96-0.8-0.62 1.05-0.8-0.7-0.54zm-32.52-5.36 1.12 5.36-0.72 0.53 1.07 0.8-0.8 0.63 1.04 0.96-0.66 0.48 1.52 1.77 6.9-2 4.89-4.13-12.7-9.39z"
        fill="#763e1a" stroke="#763e1a" stroke-linecap="round" stroke-linejoin="round" stroke-width=".25" />
    <path
        d="m30.3 14.77-6.9-2 2.08 3.13-3.1 6.05 4.1-0.05h6.13zm-21.58-2.01-6.9 2.01-2.3 7.13h6.13l4.1 0.05-3.1-6.05 2.08-3.14zm9.35 3.48 0.45-7.6 2-5.4h-8.92l2 5.4 0.45 7.6 0.17 2.38v5.9h3.67l0.02-5.9z"
        fill="#f5841f" stroke="#f5841f" stroke-linecap="round" stroke-linejoin="round" stroke-width=".25" />
</svg>