<svg width="289" height="206" viewBox="0 0 289 206" fill="none" xmlns="http://www.w3.org/2000/svg">
    <path d="M150.041 19.7378L94.0098 116.787L191.059 172.818L247.09 75.769L150.041 19.7378Z"
        stroke="currentColor" stroke-miterlimit="10" />
    <path d="M97.8593 33.7192L41.8281 130.768L138.877 186.799L194.908 89.7504L97.8593 33.7192Z"
        stroke="currentColor" stroke-miterlimit="10" />
    <path d="M123.982 26.7203L67.9512 123.769L165 179.8L221.031 82.7514L123.982 26.7203Z"
        stroke="currentColor" stroke-miterlimit="10" />
    <path d="M41.8281 130.768L94.009 116.786" stroke="currentColor" stroke-miterlimit="10" />
    <path d="M90.334 158.771L142.515 144.79" stroke="currentColor" stroke-miterlimit="10" />
    <path d="M146.361 61.7334L198.542 47.7516" stroke="currentColor" stroke-miterlimit="10" />
    <path d="M69.8574 82.2246L122.038 68.2428" stroke="currentColor" stroke-miterlimit="10" />
    <path d="M166.902 138.255L219.083 124.274" stroke="currentColor" stroke-miterlimit="10" />
    <path d="M138.877 186.799L191.058 172.818" stroke="currentColor" stroke-miterlimit="10" />
    <path d="M97.8809 33.6807L150.062 19.6988" stroke="currentColor" stroke-miterlimit="10" />
    <path d="M194.932 89.7119L247.112 75.7301" stroke="currentColor" stroke-miterlimit="10" />
    <path
        d="M162.519 162.971C231.175 144.575 279.63 102.783 270.746 69.626C261.861 36.4692 199.002 24.5036 130.346 42.8999C61.69 61.2963 13.2354 103.088 22.1197 136.245C31.004 169.402 93.863 181.368 162.519 162.971Z"
        stroke="currentColor" stroke-miterlimit="10" />
    <path
        d="M88.6255 181.601C88.9463 182.799 89.0282 184.047 88.8664 185.277C88.7046 186.506 88.3023 187.691 87.6825 188.764C87.0626 189.838 86.2374 190.779 85.254 191.533C84.2705 192.288 83.148 192.842 81.9506 193.163C80.7531 193.483 79.5043 193.565 78.2752 193.403C77.0462 193.242 75.861 192.839 74.7875 192.219C73.7139 191.6 72.7729 190.774 72.0183 189.791C71.2636 188.807 70.7101 187.685 70.3892 186.488C69.7472 184.071 70.09 181.499 71.3424 179.335C72.5947 177.171 74.6544 175.593 77.0693 174.945C79.4843 174.298 82.0573 174.636 84.2238 175.884C86.3903 177.131 87.9733 179.188 88.6255 181.601Z"
        fill="currentColor" />
    <path
        d="M73.0117 144.008C73.3713 145.35 73.183 146.78 72.4883 147.983C71.7936 149.186 70.6493 150.064 69.3073 150.424C67.9652 150.783 66.5352 150.595 65.332 149.901C64.1287 149.206 63.2507 148.062 62.8911 146.719C62.5314 145.377 62.7197 143.947 63.4144 142.744C64.1091 141.541 65.2534 140.663 66.5955 140.303C67.9375 139.944 69.3675 140.132 70.5708 140.827C71.774 141.521 72.6521 142.666 73.0117 144.008Z"
        fill="currentColor" />
    <path
        d="M214.25 97.4017C214.61 98.7438 214.421 100.174 213.727 101.377C213.032 102.58 211.888 103.458 210.546 103.818C209.203 104.178 207.774 103.989 206.57 103.295C205.367 102.6 204.489 101.456 204.129 100.114C203.77 98.7714 203.958 97.3415 204.653 96.1382C205.347 94.9349 206.492 94.0569 207.834 93.6973C209.176 93.3377 210.606 93.526 211.809 94.2207C213.012 94.9154 213.89 96.0596 214.25 97.4017Z"
        fill="currentColor" />
    <path
        d="M248.054 123.635C248.054 126.252 245.932 128.374 243.315 128.374C240.698 128.374 238.576 126.252 238.576 123.635C238.576 121.018 240.698 118.896 243.315 118.896C245.932 118.896 248.054 121.018 248.054 123.635Z"
        fill="currentColor" stroke="currentColor" />
    <path
        d="M256.941 12.9746C257.388 16.4402 258.972 19.6596 261.445 22.1288C263.917 24.598 267.139 26.1774 270.605 26.6199C267.141 27.0702 263.923 28.6551 261.454 31.1271C258.986 33.5991 257.405 36.819 256.96 40.284C256.511 36.8202 254.93 33.602 252.462 31.1306C249.994 28.6592 246.778 27.0733 243.314 26.6199C246.776 26.1705 249.992 24.5883 252.46 22.1201C254.928 19.6518 256.51 16.4362 256.96 12.9746H256.941Z"
        fill="currentColor" />
    <path
        d="M232.271 44.7326C232.508 46.5387 233.335 48.216 234.623 49.5041C235.911 50.7922 237.589 51.6192 239.395 51.8568C237.6 52.0906 235.931 52.9066 234.644 54.1798C233.357 55.453 232.524 57.1131 232.271 58.9056C232.039 57.097 231.214 55.4164 229.925 54.1271C228.636 52.8378 226.955 52.0128 225.146 51.7814C226.955 51.55 228.636 50.725 229.925 49.4357C231.214 48.1464 232.039 46.4658 232.271 44.6572V44.7326Z"
        fill="currentColor" />
    <path
        d="M7.63786 102.481C7.87543 104.287 8.70243 105.964 9.99056 107.252C11.2787 108.54 12.9559 109.367 14.762 109.605C12.967 109.839 11.2981 110.655 10.0113 111.928C8.72448 113.201 7.89073 114.861 7.63786 116.654C7.40644 114.845 6.58143 113.164 5.29216 111.875C4.00288 110.586 2.32223 109.761 0.513672 109.529C2.32223 109.298 4.00288 108.473 5.29216 107.184C6.58143 105.894 7.40644 104.214 7.63786 102.405V102.481Z"
        fill="currentColor" />
    <path
        d="M41.8272 92.4483C41.8272 93.8377 41.2753 95.1702 40.2928 96.1527C39.3103 97.1351 37.9778 97.6871 36.5884 97.6871C35.199 97.6871 33.8665 97.1351 32.884 96.1527C31.9016 95.1702 31.3496 93.8377 31.3496 92.4483C31.3496 91.0589 31.9016 89.7263 32.884 88.7439C33.8665 87.7614 35.199 87.2095 36.5884 87.2095C37.9778 87.2095 39.3103 87.7614 40.2928 88.7439C41.2753 89.7263 41.8272 91.0589 41.8272 92.4483Z"
        fill="currentColor" />
    <mask id="path-21-inside-1_328_269641" fill="white">
        <path fill-rule="evenodd" clip-rule="evenodd"
            d="M199.307 26.6895C199.307 35.526 192.143 42.6895 183.307 42.6895C174.47 42.6895 167.307 35.526 167.307 26.6895C167.307 17.8529 174.47 10.6895 183.307 10.6895C192.143 10.6895 199.307 17.8529 199.307 26.6895ZM183.214 27.2066L177.688 31.4469C177.466 31.6174 177.147 31.5755 176.977 31.3533C176.806 31.131 176.848 30.8126 177.07 30.6421L182.596 26.4018L178.358 20.8786C178.188 20.6564 178.23 20.338 178.452 20.1675C178.674 19.9969 178.993 20.0388 179.163 20.2611L183.401 25.7843L188.924 21.5462C189.147 21.3756 189.465 21.4176 189.636 21.6398C189.806 21.8621 189.764 22.1805 189.542 22.351L184.019 26.5891L188.259 32.1151C188.43 32.3373 188.388 32.6558 188.165 32.8263C187.943 32.9968 187.625 32.9549 187.454 32.7327L183.214 27.2066Z" />
    </mask>
    <path fill-rule="evenodd" clip-rule="evenodd"
        d="M199.307 26.6895C199.307 35.526 192.143 42.6895 183.307 42.6895C174.47 42.6895 167.307 35.526 167.307 26.6895C167.307 17.8529 174.47 10.6895 183.307 10.6895C192.143 10.6895 199.307 17.8529 199.307 26.6895ZM183.214 27.2066L177.688 31.4469C177.466 31.6174 177.147 31.5755 176.977 31.3533C176.806 31.131 176.848 30.8126 177.07 30.6421L182.596 26.4018L178.358 20.8786C178.188 20.6564 178.23 20.338 178.452 20.1675C178.674 19.9969 178.993 20.0388 179.163 20.2611L183.401 25.7843L188.924 21.5462C189.147 21.3756 189.465 21.4176 189.636 21.6398C189.806 21.8621 189.764 22.1805 189.542 22.351L184.019 26.5891L188.259 32.1151C188.43 32.3373 188.388 32.6558 188.165 32.8263C187.943 32.9968 187.625 32.9549 187.454 32.7327L183.214 27.2066Z"
        fill="currentColor" />
    <path
        d="M183.214 27.2066L184.007 26.5979L183.398 25.8045L182.605 26.4133L183.214 27.2066ZM177.688 31.4469L177.079 30.6535L177.079 30.6535L177.688 31.4469ZM177.07 30.6421L176.462 29.8487L176.462 29.8487L177.07 30.6421ZM182.596 26.4018L183.205 27.1952L183.998 26.5864L183.39 25.7931L182.596 26.4018ZM178.358 20.8786L179.152 20.2699L178.358 20.8786ZM178.452 20.1675L179.061 20.9608L179.061 20.9608L178.452 20.1675ZM179.163 20.2611L178.37 20.8698L178.37 20.8698L179.163 20.2611ZM183.401 25.7843L182.608 26.393L183.217 27.1864L184.01 26.5776L183.401 25.7843ZM188.924 21.5462L188.316 20.7528V20.7528L188.924 21.5462ZM189.636 21.6398L190.429 21.031L190.429 21.031L189.636 21.6398ZM189.542 22.351L188.933 21.5576V21.5576L189.542 22.351ZM184.019 26.5891L183.41 25.7957L182.617 26.4045L183.225 27.1978L184.019 26.5891ZM188.259 32.1151L187.466 32.7239L188.259 32.1151ZM188.165 32.8263L187.557 32.0329L187.557 32.0329L188.165 32.8263ZM187.454 32.7327L188.248 32.1239L188.247 32.1239L187.454 32.7327ZM183.307 43.6895C192.695 43.6895 200.307 36.0783 200.307 26.6895H198.307C198.307 34.9737 191.591 41.6895 183.307 41.6895V43.6895ZM166.307 26.6895C166.307 36.0783 173.918 43.6895 183.307 43.6895V41.6895C175.022 41.6895 168.307 34.9737 168.307 26.6895H166.307ZM183.307 9.68945C173.918 9.68945 166.307 17.3006 166.307 26.6895H168.307C168.307 18.4052 175.022 11.6895 183.307 11.6895V9.68945ZM200.307 26.6895C200.307 17.3006 192.695 9.68945 183.307 9.68945V11.6895C191.591 11.6895 198.307 18.4052 198.307 26.6895H200.307ZM182.605 26.4133L177.079 30.6535L178.297 32.2403L183.823 28L182.605 26.4133ZM177.079 30.6535C177.295 30.4879 177.604 30.5286 177.77 30.7445L176.183 31.962C176.69 32.6224 177.636 32.747 178.297 32.2402L177.079 30.6535ZM177.77 30.7445C177.936 30.9604 177.895 31.2698 177.679 31.4354L176.462 29.8487C175.801 30.3555 175.677 31.3016 176.183 31.962L177.77 30.7445ZM177.679 31.4354L183.205 27.1952L181.988 25.6085L176.462 29.8487L177.679 31.4354ZM183.39 25.7931L179.152 20.2699L177.565 21.4874L181.803 27.0106L183.39 25.7931ZM179.152 20.2699C179.317 20.4858 179.277 20.7951 179.061 20.9608L177.843 19.3741C177.183 19.8808 177.058 20.827 177.565 21.4874L179.152 20.2699ZM179.061 20.9608C178.845 21.1265 178.535 21.0858 178.37 20.8698L179.956 19.6523C179.45 18.9919 178.504 18.8674 177.843 19.3741L179.061 20.9608ZM178.37 20.8698L182.608 26.393L184.194 25.1755L179.956 19.6523L178.37 20.8698ZM184.01 26.5776L189.533 22.3395L188.316 20.7528L182.792 24.9909L184.01 26.5776ZM189.533 22.3395C189.317 22.5052 189.008 22.4645 188.842 22.2486L190.429 21.031C189.922 20.3706 188.976 20.2461 188.316 20.7528L189.533 22.3395ZM188.842 22.2486C188.676 22.0327 188.717 21.7233 188.933 21.5576L190.151 23.1444C190.811 22.6376 190.936 21.6915 190.429 21.031L188.842 22.2486ZM188.933 21.5576L183.41 25.7957L184.627 27.3824L190.151 23.1444L188.933 21.5576ZM183.225 27.1978L187.466 32.7239L189.052 31.5063L184.812 25.9803L183.225 27.1978ZM187.466 32.7239C187.3 32.5079 187.341 32.1986 187.557 32.0329L188.774 33.6196C189.435 33.1129 189.559 32.1667 189.052 31.5063L187.466 32.7239ZM187.557 32.0329C187.772 31.8673 188.082 31.908 188.248 32.1239L186.661 33.3414C187.168 34.0018 188.114 34.1264 188.774 33.6196L187.557 32.0329ZM188.247 32.1239L184.007 26.5979L182.421 27.8154L186.661 33.3414L188.247 32.1239Z"
        fill="currentColor" mask="url(#path-21-inside-1_328_269641)" />
</svg>