<svg xmlns="http://www.w3.org/2000/svg" width="247" height="202" fill="none">
    <path stroke="currentColor" stroke-miterlimit="10" stroke-width="1.2"
        d="M216.68 100.532c0-45.511-36.707-82.96-83.246-83.247-43.759-.27-83.246 42.864-83.246 83.247 0 40.382 39.487 83.516 83.246 83.246 46.539-.287 83.246-37.736 83.246-83.246Z" />
    <path stroke="currentColor" stroke-miterlimit="10" stroke-width="1.2"
        d="M142.779 167.129c-35.388 0-66.597-33.087-66.597-66.597 0-33.511 31.209-66.597 66.597-66.597 37.165 0 66.597 30.147 66.597 66.597 0 36.449-29.432 66.597-66.597 66.597Z" />
    <path stroke="currentColor" stroke-miterlimit="10" stroke-width="1.2"
        d="M204.839 100.534c0-27.093-22.71-50.119-49.948-49.948-26.568.166-49.948 23.284-49.948 49.948 0 26.663 23.38 49.781 49.948 49.947 27.234.171 49.948-22.855 49.948-49.947Z" />
    <path stroke="currentColor" stroke-miterlimit="10" stroke-width="1.2"
        d="M166.982 133.83c-18.277.009-33.298-15.367-33.298-33.298s15.021-33.307 33.298-33.299c18.006.009 33.299 16.337 33.299 33.299 0 16.961-15.293 33.29-33.299 33.298Z" />
    <path stroke="currentColor" stroke-miterlimit="10" stroke-width="1.2"
        d="M192.925 100.533c0-8.287-7.692-16.624-16.649-16.65-9.144-.024-16.649 7.693-16.649 16.65 0 8.957 7.505 16.674 16.649 16.649 8.957-.025 16.649-8.362 16.649-16.649Z" />
    <path stroke="currentColor" stroke-miterlimit="10" stroke-width="1.2"
        d="M179.995 100.741c-3.03 39.201-47.563 60.641-50.364 99.896M179.994 100.534c9.757 3.742 15.888 7.509 22.452 15.434 6.393 7.721 13.398 11.492 22.663 15.434M179.994 100.533c7.95-13.348 6.069-25.735 4.446-40.407-1.59-14.348-.317-27.06 5.523-40.408M179.994 100.533c-13.161-17.665-36.033-28.79-54.272-40.407-18.868-12.017-37.332-24.52-53.195-40.408" />
    <path fill="currentColor" fill-rule="evenodd"
        d="M129.632 1.236c55.66-.178 99.294 43.995 99.294 99.296 0 55.301-43.634 99.473-99.294 99.295-35.185-.112-68.195-21.577-85.88-51.632-.26.338-.529.669-.807.992 17.948 30.209 51.212 51.727 86.683 51.84 56.332.18 100.498-44.538 100.498-100.495C230.126 44.574 185.96-.144 129.628.036 76.948.204 29.135 47.586 29.135 100.532c0 3.198.174 6.376.514 9.525.417.087.83.185 1.24.293a87.682 87.682 0 0 1-.554-9.818c0-52.278 47.27-99.13 99.297-99.296Z"
        clip-rule="evenodd" />
    <circle cx="24.734" cy="133.554" r="23.5" stroke="currentColor" />
    <path fill="currentColor" fill-rule="evenodd"
        d="M179.81 99.963c-23.44 7.507-47.755 11.865-72.175 16.026l-5.088.864-.012.002c-18.287 3.105-36.603 6.214-54.592 10.568.102.386.194.775.277 1.168 17.944-4.344 36.227-7.448 54.529-10.555l5.088-.865c24.415-4.159 48.808-8.529 72.339-16.065l-.366-1.143Z"
        clip-rule="evenodd" />
    <path stroke="currentColor" stroke-linecap="round"
        d="M31.098 139.917 18.371 127.19M31.098 127.19 18.37 139.917" />
    <path fill="currentColor" fill-rule="evenodd" stroke="currentColor"
        d="M9.734 100.384a7.5 7.5 0 1 0 0-15 7.5 7.5 0 0 0 0 15Z" clip-rule="evenodd" />
    <path fill="currentColor"
        d="M233.335 7.87a15.075 15.075 0 0 0 13.042 13.023 15.091 15.091 0 0 0-13.024 13.042 15.106 15.106 0 0 0-13.023-13.042A15.093 15.093 0 0 0 233.353 7.87h-.018ZM40.489 167.2a7.897 7.897 0 0 0 6.8 6.799 7.897 7.897 0 0 0-6.8 6.728 7.864 7.864 0 0 0-6.8-6.8 7.857 7.857 0 0 0 6.8-6.799v.072ZM213.532 37.775a7.9 7.9 0 0 0 6.799 6.8 7.897 7.897 0 0 0-6.799 6.727 7.859 7.859 0 0 0-6.8-6.8 7.858 7.858 0 0 0 6.8-6.799v.072Z" />
    <path fill="currentColor" stroke="currentColor"
        d="M226.18 167.128a4.5 4.5 0 1 1-9.001 0 4.5 4.5 0 0 1 9.001 0Z" />
</svg>