<svg width="26" height="27" viewBox="0 0 26 27" fill="none" xmlns="http://www.w3.org/2000/svg">
    <path
        d="M4.44762 18.5L4.44762 8.31818H6.29208V12.6286H11.0101V8.31818H12.8596L12.8596 18.5H11.0101L11.0101 14.1747H6.29208L6.29208 18.5H4.44762ZM14.7662 18.5L14.7662 17.1676L18.301 13.7024C18.639 13.361 18.9208 13.0578 19.1461 12.7926C19.3715 12.5275 19.5405 12.2706 19.6532 12.022C19.7659 11.7734 19.8223 11.5083 19.8223 11.2266C19.8223 10.9051 19.7493 10.63 19.6035 10.4013C19.4577 10.1693 19.2572 9.99029 19.002 9.86435C18.7467 9.7384 18.4567 9.67543 18.1319 9.67543C17.7972 9.67543 17.5038 9.74503 17.252 9.88423C17.0001 10.0201 16.8045 10.214 16.6653 10.4659C16.5294 10.7178 16.4615 11.0178 16.4615 11.3658H14.7065C14.7065 10.7195 14.854 10.1577 15.149 9.6804C15.444 9.20312 15.85 8.83357 16.367 8.57173C16.8874 8.3099 17.484 8.17898 18.1568 8.17898C18.8395 8.17898 19.4395 8.30658 19.9565 8.56179C20.4735 8.817 20.8746 9.16667 21.1596 9.6108C21.448 10.0549 21.5922 10.562 21.5922 11.1321C21.5922 11.5133 21.5192 11.8878 21.3734 12.2557C21.2276 12.6236 20.9707 13.0312 20.6028 13.4787C20.2382 13.9261 19.7261 14.468 19.0666 15.1044L17.3116 16.8892V16.9588H21.7463V18.5H14.7662Z"
        fill="#B3B3B3" />
</svg>
    