<svg width="26" height="27" viewBox="0 0 26 27" fill="none" xmlns="http://www.w3.org/2000/svg">
    <path
        d="M4.604 11.875C3.70484 11.875 2.979 12.6008 2.979 13.5C2.979 14.3992 3.70484 15.125 4.604 15.125C5.50317 15.125 6.229 14.3992 6.229 13.5C6.229 12.6008 5.50317 11.875 4.604 11.875ZM4.604 5.375C3.70484 5.375 2.979 6.10083 2.979 7C2.979 7.89917 3.70484 8.625 4.604 8.625C5.50317 8.625 6.229 7.89917 6.229 7C6.229 6.10083 5.50317 5.375 4.604 5.375ZM4.604 18.375C3.70484 18.375 2.979 19.1117 2.979 20C2.979 20.8883 3.71567 21.625 4.604 21.625C5.49234 21.625 6.229 20.8883 6.229 20C6.229 19.1117 5.50317 18.375 4.604 18.375ZM7.854 21.0833H23.0207V18.9167H7.854V21.0833ZM7.854 14.5833L23.0207 14.5833V12.4167H7.854L7.854 14.5833ZM7.854 5.91667V8.08333L23.0207 8.08333V5.91667L7.854 5.91667Z"
        fill="#B3B3B3" />
</svg>
    