<svg width="1588" height="390" viewBox="0 0 1588 390" fill="none" xmlns="http://www.w3.org/2000/svg">
    <path
        d="M12.2028 378.707C8.28569 374.765 5.20632 370.097 3.14445 364.972C1.08257 359.848 0.079519 354.371 0.193839 348.862C0.202323 333.02 3.13262 317.311 8.84249 302.497L83.2099 89.7926C88.9352 72.8252 97.177 56.782 107.669 42.1818C116.651 29.5903 128.209 18.9823 141.602 11.0372C153.818 3.90208 167.773 0.158202 181.981 0.204261C187.822 -0.165622 193.679 0.600804 199.219 2.45966C204.758 4.31852 209.87 7.23332 214.262 11.0372C222.095 19.3827 226.322 30.3953 226.05 41.7485C225.964 58.2615 222.867 74.6254 216.906 90.0634L198.066 143.903H140.445L162.48 80.5304C163.807 77.2672 164.262 73.7243 163.802 70.2391C163.625 69.0712 163.002 68.0131 162.061 67.2791C161.121 66.545 159.931 66.1897 158.734 66.2851C157.217 66.3502 155.733 66.7374 154.383 67.4199C153.032 68.1024 151.848 69.0642 150.912 70.2391C148.285 73.2513 146.3 76.7507 145.073 80.5304L65.1965 309.213C63.838 312.431 63.363 315.942 63.8193 319.396C64.01 320.571 64.6557 321.627 65.621 322.344C66.5863 323.061 67.7963 323.383 68.9975 323.242C70.5128 323.17 71.9948 322.78 73.344 322.098C74.6932 321.416 75.8784 320.458 76.8198 319.288C79.3349 316.354 81.2099 312.944 82.3285 309.268L107.999 235.875H165.675L142.539 302.768C137.031 319.12 129.025 334.553 118.796 348.537C109.928 360.742 98.5556 370.982 85.4134 378.598C73.1542 385.679 59.1971 389.418 44.9796 389.431C33.0534 390.168 21.3022 386.323 12.2028 378.707Z"
        fill="#EF692B" />
    <path
        d="M295.628 0.11377H387.161L284.639 389.52H222.9L252.127 289.273L265.721 244.718L317.322 69.1733H316.925L247.539 244.44L229.017 292.447L190.3 389.53H129.977L295.628 0.11377ZM226.922 235.696H297.497L273.821 303.697H203.246L226.922 235.696Z"
        fill="#EF692B" />
    <path
        d="M441.825 0.0955811H558.803C584.471 0.0955811 604.345 3.38026 618.425 9.94962C624.947 12.6856 630.686 16.954 635.138 22.3802C639.59 27.8064 642.62 34.2243 643.96 41.0706C646.905 55.3227 644.3 74.103 636.147 97.4112C629.686 117.626 619.494 136.498 606.081 153.084C595.195 166.349 581.182 176.802 565.258 183.537C548.222 190.169 530.172 193.933 511.865 194.671L521.717 190.384C537.828 190.993 553.759 193.938 568.995 199.125C573.227 200.427 577.067 202.733 580.178 205.84C583.288 208.947 585.573 212.759 586.83 216.94C588.278 227.771 586.753 238.785 582.414 248.84L533.097 389.525H436.333L485.31 249.286C487.328 244.637 488.126 239.564 487.631 234.533C487.194 232.684 486.259 230.984 484.924 229.613C483.589 228.242 481.903 227.249 480.044 226.738C473.475 224.81 466.622 223.982 459.774 224.289L402.021 389.525H305.766L441.825 0.0955811ZM513.733 149.521C522.69 139.28 529.295 127.259 533.097 114.28L537.457 101.809C542.213 88.2252 543.365 78.5382 540.911 72.7482C538.42 67.181 531.172 64.0633 519.225 64.0076H515.715L482.026 160.321H485.876C491.026 160.507 496.159 159.643 500.953 157.784C505.747 155.926 510.098 153.112 513.733 149.521Z"
        fill="#EF692B" />
    <path
        d="M698.963 0.0955811H834.853C864.597 0.0955811 887.812 3.39861 904.496 10.0047C911.866 12.3629 918.557 16.4168 924.013 21.8293C929.469 27.2418 933.531 33.8566 935.864 41.1237C940.054 55.3378 938.072 74.0983 929.918 97.4051C923.388 117.921 912.59 136.879 898.211 153.074C885.701 166.634 870.017 176.99 852.518 183.247C832.765 189.974 812.092 193.727 791.198 194.381L802.522 190.038C821.148 190.681 839.618 193.617 857.501 198.778C869.391 202.954 876.639 208.91 879.13 216.593C881.621 224.275 880.545 234.908 875.789 248.435L826.529 389.501H714.194L763.228 249.27C765.274 244.61 765.903 239.467 765.039 234.462C764.314 232.507 763.089 230.769 761.482 229.414C759.876 228.059 757.942 227.133 755.867 226.724C748.127 224.75 740.133 223.906 732.143 224.219L674.351 389.527H562.921L698.963 0.0955811ZM790.689 149.678C800.315 139.732 807.348 127.641 811.185 114.44L815.545 101.97C820.301 88.3867 821.094 78.7003 817.923 72.9107C814.752 67.1211 806.221 64.2078 792.331 64.1707H788.197L754.565 160.478H759.038C770.615 161.063 781.969 157.189 790.689 149.678Z"
        fill="#EF692B" />
    <path
        d="M915.445 378.468C898.792 371.238 888.185 360.556 883.627 346.423C879.068 332.289 880.355 315.155 887.487 295.021L957.631 94.4016C964.179 75.3335 975.323 58.1068 990.111 44.1926C1006.01 29.5528 1024.93 18.4563 1045.59 11.6597C1069.38 3.67044 1094.4 -0.236204 1119.54 0.110571C1147 0.110571 1169.06 3.90607 1185.71 11.4971C1193.13 14.4063 1199.85 18.8006 1205.45 24.4011C1211.06 30.0017 1215.41 36.6861 1218.24 44.0299C1223.36 58.1275 1222.45 75.0446 1215.54 94.7811L1145.34 295.4C1138.83 314.766 1127.78 332.354 1113.08 346.748C1097.73 361.282 1079.21 372.185 1058.93 378.63C1034.56 386.306 1009.08 389.97 983.494 389.474C954.819 389.474 932.136 385.806 915.445 378.468ZM1020.22 319.529C1023.87 316.907 1026.59 313.229 1028 309.01L1107.79 80.7378C1108.55 79.0723 1108.89 77.2485 1108.78 75.4248C1108.66 73.6011 1108.1 71.8326 1107.13 70.2731C1105.82 68.778 1104.17 67.6204 1102.3 66.902C1100.44 66.1835 1098.42 65.9261 1096.43 66.1522C1091.52 65.9673 1086.68 67.3564 1082.64 70.1104C1078.96 72.8378 1076.24 76.63 1074.87 80.9547L995.074 309.227C994.282 310.893 993.903 312.721 993.97 314.559C994.037 316.398 994.548 318.194 995.46 319.8C996.835 321.289 998.557 322.426 1000.48 323.116C1002.4 323.805 1004.46 324.026 1006.49 323.758C1011.43 323.864 1016.27 322.379 1020.28 319.529H1020.22Z"
        fill="#EF692B" />
    <path
        d="M1332.88 70.7935H1245.12L1269.98 0.0893555L1587.68 0.646081L1562.99 71.1832H1475.23L1364.08 389.519H1221.79L1332.88 70.7935Z"
        fill="#EF692B" />
</svg>